/* XPM */
static char * amplify_xpm[] = {
"28 28 5 1",
" 	c None",
".	c #EA8585",
"+	c #050202",
"@	c #000000",
"#	c #BCB8B8",
"                            ",
"                 .          ",
"                  .         ",
"                .  .        ",
"                 .  .       ",
"            +    .   .      ",
"           @@ .   .  ..     ",
"          @@@  .  .   .     ",
"         @@@@   .  .  .     ",
"        @@@@@   .  .. ..    ",
"  @@@@ @@@@@@    .  .  .    ",
"  @@@@ @@@@@@    .  .  .    ",
"  @@@@ @@@@@@    .  .  .    ",
"  @@@@ @@@@@@    .  .  .    ",
"  @@@@ @@@@@@    .  .  .    ",
"  #@#@ #@@@@@    .  .  .    ",
"  @#@# @#@@@@    . ..  .    ",
"        @#@@@   .  .  ..    ",
"         @#@@   .  .  .     ",
"          @#@  .  .   .     ",
"           @# .   .   .     ",
"            @    .   ..     ",
"                .    .      ",
"               .    .       ",
"                   .        ",
"                  .         ",
"                 .          ",
"                            "};
