/* XPM */
static char * amplify_dark_xpm[] = {
"28 28 14 1",
" 	c None",
".	c #EA8585",
"+	c #FFFFFF",
"@	c #EFEFEF",
"#	c #FAFAFA",
"$	c #ECECEC",
"%	c #FEFEFE",
"&	c #E1E1E1",
"*	c #F2F2F2",
"=	c #E8E8E8",
"-	c #FDFDFD",
";	c #F6F6F6",
">	c #E6E6E6",
",	c #F1F1F1",
"                            ",
"                            ",
"                  .         ",
"                   .        ",
"                 .  .       ",
"            +    .   .      ",
"           ++ .   .  ..     ",
"          +++  .  .   .     ",
"         ++++   .  .  .     ",
"        +++++   .  .. ..    ",
"  ++++ ++++++    .  .  .    ",
"  ++++ ++++++    .  .  .    ",
"  ++++ ++++++    .  .  .    ",
"  ++++ ++++++    .  .  .    ",
"  ++++ ++++++    .  .  .    ",
"  @#@+ $%++++    .  .  .    ",
"  #&@  *=-+++    . ..  .    ",
"        ;>#++   .  .  ..    ",
"         #>;+   .  .  .     ",
"          -=,  .  .   .     ",
"           %$ .   .   .     ",
"            +    .   ..     ",
"                .    .      ",
"                    .       ",
"                   .        ",
"                  .         ",
"                            ",
"                            "};
