/* XPM */
static char * cut_xpm[] = {
"28 28 9 1",
" 	c None",
".	c #000000",
"+	c #888889",
"@	c #BABABC",
"#	c #D19C9C",
"$	c #E86363",
"%	c #807C80",
"&	c #000005",
"*	c #788078",
"                            ",
"                            ",
"                            ",
"                            ",
"                      ...   ",
"      ....           .+@.   ",
"     .#$$$.         .+@.    ",
"     .#  .$.       .+@.     ",
"     .$   ..      .+@.      ",
"     .##  $.     .+@.       ",
"      .#.$#.    .+@.        ",
"       ....$.  .+@.         ",
"         %.+@ .+@.          ",
"           .+&+@.           ",
"            .++@.           ",
"           .+&&+@.          ",
"       ....$. *.+@.         ",
"      .$.#$.    .+@.        ",
"     .$#  #.     .+@.       ",
"     .#   ..      .+@.      ",
"     .$  #$.       .+@.     ",
"     ..$#$.         .+@.    ",
"      ....           .+@.   ",
"                      ...   ",
"                            ",
"                            ",
"                            ",
"                            "};
