/* XPM */
static const char * declick_xpm[] = {
"48 49 112 2",
"  	c None",
". 	c #FF4A4A",
"+ 	c #FF3B3B",
"@ 	c #FF1C1C",
"# 	c #FF0A0A",
"$ 	c #FF0202",
"% 	c #FF0808",
"& 	c #FF1A1A",
"* 	c #FF3737",
"= 	c #FF5252",
"- 	c #FF3939",
"; 	c #FF1515",
"> 	c #FF0000",
", 	c #FF0101",
"' 	c #FF0505",
") 	c #FF0404",
"! 	c #FF1111",
"~ 	c #FF1B1B",
"{ 	c #FF2121",
"] 	c #FF3838",
"^ 	c #FF4242",
"/ 	c #FF1717",
"( 	c #FF0B0B",
"_ 	c #831F1F",
": 	c #FF2F2F",
"< 	c #FF2B2B",
"[ 	c #353333",
"} 	c #FF2525",
"| 	c #020000",
"1 	c #FF0C0C",
"2 	c #FF1616",
"3 	c #FF1010",
"4 	c #FF0303",
"5 	c #FF2828",
"6 	c #FF3434",
"7 	c #FF3030",
"8 	c #050000",
"9 	c #A5A4A4",
"0 	c #000002",
"a 	c #3D0000",
"b 	c #0C0C0E",
"c 	c #1B0001",
"d 	c #AA0000",
"e 	c #FF5151",
"f 	c #8A0203",
"g 	c #FF4545",
"h 	c #FF2626",
"i 	c #010103",
"j 	c #060608",
"k 	c #040406",
"l 	c #F60001",
"m 	c #FF2222",
"n 	c #1D1D1F",
"o 	c #010002",
"p 	c #827C7C",
"q 	c #4F0305",
"r 	c #0E0E10",
"s 	c #262628",
"t 	c #250103",
"u 	c #0F0FC4",
"v 	c #B90438",
"w 	c #160EBD",
"x 	c #130EC0",
"y 	c #240EB3",
"z 	c #0F0EC3",
"A 	c #900659",
"B 	c #FF0707",
"C 	c #18181A",
"D 	c #F90B0B",
"E 	c #000001",
"F 	c #000000",
"G 	c #B2B0B0",
"H 	c #FF4949",
"I 	c #313133",
"J 	c #08080A",
"K 	c #783536",
"L 	c #FB0B0B",
"M 	c #232325",
"N 	c #FD5555",
"O 	c #050204",
"P 	c #252526",
"Q 	c #191919",
"R 	c #0F0F11",
"S 	c #9B0708",
"T 	c #030305",
"U 	c #F82324",
"V 	c #F90505",
"W 	c #070001",
"X 	c #837A7A",
"Y 	c #FF1E1E",
"Z 	c #913232",
"` 	c #F70000",
" .	c #180001",
"..	c #0D0D0F",
"+.	c #FF3F3F",
"@.	c #957070",
"#.	c #E80000",
"$.	c #560001",
"%.	c #7C1011",
"&.	c #CF2E2E",
"*.	c #DD2D2E",
"=.	c #FF2424",
"-.	c #FF1313",
";.	c #FF2727",
">.	c #FF1F1F",
",.	c #2E0001",
"'.	c #FF0F0F",
").	c #FF0E0E",
"!.	c #FF0D0D",
"~.	c #FF0606",
"{.	c #FF1212",
"].	c #340103",
"                                                                                                ",
"                                                                                                ",
"                                                                                                ",
"                                                                                                ",
"                                      . + @ # $ % & * =                                         ",
"                                - ; > , $ $ ' ' ' ' ) ! ~ { ]                                   ",
"                          ^ / ( > > > >     _         > > > > ' @ :                             ",
"                        < # > >             [                 > > % }                           ",
"                      ' > >                 |                     1 1 2                         ",
"                    > > >                   |                     1 1 > >                       ",
"                  , >                       |                   1 1 1   > >                     ",
"                3 ,                         |                 1 1 1       > #                   ",
"              ] 4                           |               1 1 1 1         $ 5                 ",
"              > $                           |             1 1 1 1           > '                 ",
"            : >                             |             1 1 1               > }               ",
"            > >                             |           1 1 1                 > > 6             ",
"          7 >           8                   |         1 1 1                     > 5             ",
"          ) >       9 0 8 8                 |       1 1 1                     a > 4             ",
"          > >         0 0 0 b               0     1 1 1 1 0                 0 c d >             ",
"        e > >     9 0 0   9 0 9           0 0   1 1 1 0 0 0 0               0 0 f , g           ",
"        h > >     9 i 0   9 j 0           0 0 1 1 1 1     k 0             0 0   l > m           ",
"        1 > >   9 n o p   9 j 0           o q 1 1 1 0     0 0             0 0   > > #           ",
"      | , > >     0 0     9 r s         o t 1 1 1 0         k 0         0 0     > > ,           ",
"      u % > v w u u u u u u u u u u u x y 1 1 1 u u u u u u u u u u u u u u u z A > B u         ",
"      p { > >   9 0 0         C 0       D 1 1 0 0 0         0 0         E F     > > @ [         ",
"  G G 9 H > >   p 0 p         I 0 0   1 1 1   0 0             J 0     0 F       > > ^           ",
"    G 9 K > >   0 0             t o L 1 1 1     0             M 0     E F       > > N           ",
"      G O > >   P Q             R S 1 1 1       0               T 0 0 F         > >             ",
"      G p U V   W X               1 1 1         0                 0 E           > Y             ",
"          Z > `  .              1 1 1 ..        0                             > > +.            ",
"          @.m #.$.            1 1 1             0                             > ~               ",
"            %.> &.            1 1               0                           , > ;               ",
"              *.>           1 1 1               0                           > =.                ",
"                -.>       1 1 1                 0                         > ( 6                 ",
"                  , >   1 1 1                   0                       > >                     ",
"                    > 1 1 1                     0                     > >                       ",
"                      ) 1 >                     0                 > > )                         ",
"                        ;.> > >                 0             > > > >.                          ",
"                          ^ # ' > > >           ,.      $ , , '.7                               ",
"                              @ m ).> > > , ) , > 4 ) , , !.} ).                                ",
"                                      { =.; ~.> ) {.5 7                                         ",
"                                                ].                                              ",
"                                                0                                               ",
"                                                                                                ",
"                                                                                                ",
"                                                                                                ",
"                                                                                                ",
"                                                                                                ",
"                                                                                                "};
