/* XPM */
static const char * declick_xpm[] = {
"50 49 181 2",
"  	c None",
". 	c #000000",
"+ 	c #040404",
"@ 	c #080808",
"# 	c #111111",
"$ 	c #121212",
"% 	c #101010",
"& 	c #0D0D0D",
"* 	c #070707",
"= 	c #060606",
"- 	c #131313",
"; 	c #202020",
"> 	c #525151",
", 	c #898888",
"' 	c #B5B4B4",
") 	c #D6D5D5",
"! 	c #E7E5E5",
"~ 	c #E7E2E2",
"{ 	c #E8E3E3",
"] 	c #EAE5E5",
"^ 	c #C8C5C5",
"/ 	c #949393",
"( 	c #6A6969",
"_ 	c #6D6B6B",
": 	c #0E0E0E",
"< 	c #0A0A0A",
"[ 	c #212121",
"} 	c #535252",
"| 	c #9D9C9C",
"1 	c #E3E2E2",
"2 	c #E8E5E5",
"3 	c #B1AFAF",
"4 	c #626161",
"5 	c #272727",
"6 	c #050505",
"7 	c #5E5D5D",
"8 	c #B2B0B0",
"9 	c #E2DEDE",
"0 	c #F40909",
"a 	c #C8C6C6",
"b 	c #706F6F",
"c 	c #2A2A2A",
"d 	c #0F0F0F",
"e 	c #434242",
"f 	c #9A9898",
"g 	c #DBD7D7",
"h 	c #B2B1B1",
"i 	c #545353",
"j 	c #181818",
"k 	c #161616",
"l 	c #646464",
"m 	c #C0BCBC",
"n 	c #E9E4E4",
"o 	c #D3CFCF",
"p 	c #7E7D7D",
"q 	c #252525",
"r 	c #737272",
"s 	c #CDC9C9",
"t 	c #DCD7D7",
"u 	c #918F8F",
"v 	c #2B2B2B",
"w 	c #151515",
"x 	c #767575",
"y 	c #D3D0D0",
"z 	c #DDD8D8",
"A 	c #959393",
"B 	c #686767",
"C 	c #D2CFCF",
"D 	c #8B8989",
"E 	c #484747",
"F 	c #CECACA",
"G 	c #D8D4D4",
"H 	c #716F6F",
"I 	c #B3B2B2",
"J 	c #C6C3C3",
"K 	c #424242",
"L 	c #6D6C6C",
"M 	c #E5E1E1",
"N 	c #E6E2E2",
"O 	c #919090",
"P 	c #1E1E1E",
"Q 	c #D9D8D8",
"R 	c #DEDDDD",
"S 	c #484848",
"T 	c #6A6A6A",
"U 	c #8E8D8D",
"V 	c #1A1A1A",
"W 	c #010101",
"X 	c #C5C4C4",
"Y 	c #040406",
"Z 	c #000002",
"` 	c #DCD7D8",
" .	c #D0CECE",
"..	c #343434",
"+.	c #9E9B9C",
"@.	c #393839",
"#.	c #09080A",
"$.	c #5A5959",
"%.	c #6C6C6C",
"&.	c #E6E1E1",
"*.	c #ADA9AA",
"=.	c #CFCACB",
"-.	c #E1DCDC",
";.	c #0F0F11",
">.	c #E2DDDD",
",.	c #1C1B1D",
"'.	c #A5A5A5",
").	c #939091",
"!.	c #010103",
"~.	c #3A393A",
"{.	c #060608",
"].	c #3E3D3E",
"^.	c #C7C2C3",
"/.	c #C8C4C4",
"(.	c #E0DCDC",
"_.	c #B9B7B7",
":.	c #D0D0D0",
"<.	c #202022",
"[.	c #CCC8C8",
"}.	c #070709",
"|.	c #E1DDDD",
"1.	c #C6C1C2",
"2.	c #A29E9F",
"3.	c #585657",
"4.	c #D9D4D4",
"5.	c #DBD9D9",
"6.	c #E4E2E2",
"7.	c #ABA9AA",
"8.	c #131315",
"9.	c #262628",
"0.	c #918E8F",
"a.	c #E3DEDE",
"b.	c #BBB7B7",
"c.	c #2E2D2F",
"d.	c #E6E3E3",
"e.	c #2D2D2D",
"f.	c #9F9BD7",
"g.	c #0F0FC4",
"h.	c #2D2C2C",
"i.	c #4E4C4D",
"j.	c #5B595B",
"k.	c #18181A",
"l.	c #3E3D3D",
"m.	c #585656",
"n.	c #020000",
"o.	c #CAC6C6",
"p.	c #161618",
"q.	c #636163",
"r.	c #747273",
"s.	c #E5E0E0",
"t.	c #878485",
"u.	c #E4DFE0",
"v.	c #08080A",
"w.	c #020204",
"x.	c #424141",
"y.	c #E5E2E2",
"z.	c #D3CECF",
"A.	c #E4DFDF",
"B.	c #3D3C3E",
"C.	c #2B2A2B",
"D.	c #6B6969",
"E.	c #D7D6D6",
"F.	c #252526",
"G.	c #191919",
"H.	c #646264",
"I.	c #030305",
"J.	c #494747",
"K.	c #B7B6B6",
"L.	c #D2CDCD",
"M.	c #090809",
"N.	c #0D0D0F",
"O.	c #111114",
"P.	c #E8E6E6",
"Q.	c #B0AFAF",
"R.	c #DFDADB",
"S.	c #DCDBDB",
"T.	c #BCBCBC",
"U.	c #5F5F5F",
"V.	c #090909",
"W.	c #0C0C0C",
"X.	c #100F0F",
"                                                                                                    ",
"                                                                                                    ",
"                                                                                                    ",
"                                  . + @ # $ $ % % % % & &   * .                                     ",
"                              = - ; > , ' ) ! ~ { ~ ] ^ / ( _ ; :                                   ",
"                          < [ } | 1 ] ] ] ] ] ] ] ] ] ] ] ] 2 3 4 5 $                               ",
"                      6 ; 7 8 9 ] ] ] ] ] ] 0 ] ] ] ] ] ] ] ] ] ] a b c <                           ",
"                    d e f g ] ] ] ] ] ] ] ] 0 ] ] ] ] ] ] ] ] ] ] ] ~ h i j                         ",
"                . k l m ~ ] ] ] ] ] ] ] ] ] 0 ] ] ] ] ] ] ] ] ] ] ] ] n o p q .                     ",
"                j r s ] ] ] ] ] ] ] ] ] ] ] 0 ] ] ] ] ] ] ] ] ] ] ] ] ] ] t u v .                   ",
"              w x y ] ] ] ] ] ] ] ] ] ] ~ ] 0 ] ] ] ] ] ] ] ] ] ] ] ] ] ] ] z A c .                 ",
"            : B C ] ] ] ] ] ] ] ] ] ] ] ~ ] 0 ] ] ] ] ] ] ] ] ] ] ] ] ] ] ] ] t D [                 ",
"          6 E F ] ] ] ] ] ] ] ] ] ] ] ] ~ ] 0 ] ] ] ] ] ] ] ] ] ] ] ] ] ] ] ] ] G H %               ",
"          k I ] ] ] ] ] ] ] ] ] ] ] ] ] ~ ] 0 ] ] ] ] ] ] ] ] ] ] ] ] ] ] ] ] ] ] J K .             ",
"        = L M ] ] ] ] ] ] ] ] ] ] ] ] ] { ] 0 ] ] ] ] ] ] ] ] ] ] ] ] ] ] ] ] ] ] N O P             ",
"        : Q ] ] ] ] ] ] ] ] ] ] ] ] ] ] ] ] 0 ] ] ] ] ] ] ] ] ] ] ] ] ] ] ] ] ] ] ] R S .           ",
"      . T n ] ] ] ] ] ] ] ] ] ] ] ] ] ] ] ] 0 n ] ] ] ] ] ] ] ] ] ] ] ] ] ] ] ] ] ] ] U V           ",
"      W X ] ] ] ] ] ] Y Z Z ` ] ] ] ] ] ] Z 0 n ] ] ] ] ] ] ] ] ] ] ] ] ] ] ] ] ] ] ]  ....         ",
"      5 ] ] ] ] ] ] +.Z Z Z @.] ] ] ] ] ] Z 0 ] ] ] n Z Z #.] ] ] ] ] ] ] ] Z Z Z n ] ] $.@         ",
"      %.] ] ] ] ] &.Z Z *.=.Z { { ] ] { ] Z Z ] ] -.Z Z Z Z ;.] ] ] ] ] ] >.Z Z Z ,.] ] U k         ",
"    . '.] n ] ] ] ).!.~.] ] {.].] ] ] { ] Z Z n ] Z Z ^./.Y Z ] ] ] ] ] ] Z Z n (.Z ] ] _.[         ",
"    . :.] n ] ] &.<.Z [.] ] }.Z |.] ] ] 1.Z Z 2.n Z 3.] >.Z Z 4.] ] ] ] (.Z Z ] n Z Y ] 5.c         ",
"    . 6.Z ] ] ] 7.Z Z t ] { 8.9.0.] ] ] ~.Z Z Z a.Z z ] ~ z Y !.] ] ] ] !.!.(.n n b.c.] d.e..       ",
"    . f.g.g.g.g.g.g.g.g.g.g.g.g.g.g.g.g.g.g.g.g.g.g.g.g.g.g.g.g.g.g.g.g.g.g.g.g.g.g.g.g.&.h..       ",
"    . &.i.] ] ] ~ Z j.] ] ] |.k.Z -.] ] Z ~.] Z Z Z ] ] ] ] Z Z ] ] ] ] l.m.a.] ] n ] n.~ h..       ",
"    . 6.Z o.] n t p.] ] ] n ] q.Z Z ] ] Z r.s.~.Z t.] ] ] ] u.v.Y ] ] w.x.a.] ] ] ] ] ] y.h..       ",
"    . :.!.Z ] ~ Z p.] ] ] ] ~ z.Z Z A.!.Z n ] n 0 ] ] ] ] ] ] B.Z ] ] C.D.] ] ] ] ] ~ ] E.c .       ",
"    . '.Z Z ] ~ F.G.] ] ] ] n ] H.Z { Z Z ] ] ] 0 ] ] ] ] ] ] &.I.Y w.J.>.] ] ] ] ] ] ] K.[         ",
"    . %.(.Z ] { Z a.n ] ] ] ] ] ] Z ;.Z L.] ] ] 0 ] ] ] ] ] ] ] n Z M.~ ] ] ] ] ] ] ] ] U k         ",
"      5 ] Z G.t Z n s.] ] ] { ] ] >.}.N.] ] ] ] 0 ] ] ] ] ] ] ] ] &.] ] ] ] ] ] ] ] ] ] $.@         ",
"      W X Z Z ~.Z &.] ] ] ] ] ] ] ] n &.] ] ] ] 0 ] ] ] ] ] ] ] ] ] ] ] ] ] ] ] ] ] ]  ....         ",
"      . T >.Z O.&.] ] ] ] ] ] ] ] ] ] ] ] n ] ] 0 ] ] ] ] ] ] ] ] ] ] ] ] ] ] ] ] ] ] U V .         ",
"        : Q { Z n ] ] ] ] ] ] n ] ] ] ] ] ] ] n 0 ] ] ] ] ] n ] ] ] ] ] ] ] ] ] ] ] R S .           ",
"        = L M ] ] ] ] ] ] ] ] ] ] ] ] ] ] ] ] n 0 ] ] ] ] ] ] ] ] ] ] ] ] ] ] ] ] N O P .           ",
"          k I ] ] ] ] ] ] ] ] ] n n ] ] ] ] ] n 0 ] ] ] ] ] ] ] ] ] ] ] ] ] ] ] ] J K .             ",
"          = E F ] ] ] ] ] ] ] ] ] ] ] ] ] ] ] n 0 ] ] ] ] ] ] ] ] ] ] ] ] ] ] ] G H %               ",
"            : B C ] ] ] ] ] ] ] ] ] ] ] ] ] ] ] 0 ] ] ] ] ] ] ] ] ] ] ] ] ] ] t D [ .               ",
"              w x y ] ] ] ] ] ] ] ] ] ] ] ] ] n 0 ] ] ] ] ] ] ] ] ] ] ] ] ] z A c .                 ",
"              . j r s ] ] ] ] ] ] ] ] ] ] ] ] n 0 ] ] ] ] ] ] ] ] ] ] ] ] t u v .                   ",
"                . k l m ~ ] ] ] ] ] ] ] ] ] ] ~ 0 ] ] ] ] ] ] ] ] ] ] n o p q .                     ",
"                  . d e f g ] ] ] ] ] ] ] ] ] s.0 ] ] ] ] ] ] ] ] ] ~ h i j .                       ",
"                      6 ; 7 8 9 ] ] ] ] ] ] ] &.0 ] ] ] ] ] ] ] ] a b c * .                         ",
"                        . < [ } | 1 ] ] ] ] ] { 0 ] ] ] ] ] P.Q.4 5 : . .                           ",
"                            . = - ; > , ' ) n ~ R.d.S.T./ U.c k V.. .                               ",
"                                . . + @ W.: X.% % % d & V.6 W . .                                   ",
"                                          . . . . . . . .                                           ",
"                                                                                                    ",
"                                                                                                    ",
"                                                                                                    "};
