/* XPM */
static char * declick_xpm[] = {
"51 49 155 2",
"  	c None",
". 	c #373636",
"+ 	c #AAA7A7",
"@ 	c #9C9999",
"# 	c #727070",
"$ 	c #F40909",
"% 	c #A8A5A5",
"& 	c #A9A6A6",
"* 	c #A7A4A4",
"= 	c #848282",
"- 	c #5F5D5D",
"; 	c #817F7F",
"> 	c #9F9C9C",
", 	c #9A9797",
"' 	c #969393",
") 	c #030303",
"! 	c #000000",
"~ 	c #8E8B8B",
"{ 	c #000002",
"] 	c #8A8888",
"^ 	c #4D4B4B",
"/ 	c #959292",
"( 	c #797777",
"_ 	c #444343",
": 	c #9E9B9B",
"< 	c #908D8D",
"[ 	c #343333",
"} 	c #201F21",
"| 	c #8B8888",
"1 	c #060606",
"2 	c #A19E9E",
"3 	c #9D9A9A",
"4 	c #626060",
"5 	c #7E7B7C",
"6 	c #928F8F",
"7 	c #656363",
"8 	c #A19F9F",
"9 	c #A09D9D",
"0 	c #7D7B7B",
"a 	c #000001",
"b 	c #0B0B0D",
"c 	c #686666",
"d 	c #0D0D0D",
"e 	c #868484",
"f 	c #1C1C1C",
"g 	c #292829",
"h 	c #010103",
"i 	c #1E1D1D",
"j 	c #8A8787",
"k 	c #A4A1A1",
"l 	c #7F7D7D",
"m 	c #8C8A8A",
"n 	c #8D8A8A",
"o 	c #030305",
"p 	c #989595",
"q 	c #A29F9F",
"r 	c #7B7979",
"s 	c #908E8E",
"t 	c #5A5959",
"u 	c #999696",
"v 	c #A6A3A3",
"w 	c #636161",
"x 	c #0C0C0D",
"y 	c #949292",
"z 	c #050507",
"A 	c #858282",
"B 	c #868383",
"C 	c #4E4D4D",
"D 	c #7A7777",
"E 	c #363535",
"F 	c #A5A2A2",
"G 	c #7E7B7B",
"H 	c #615F5F",
"I 	c #010101",
"J 	c #838181",
"K 	c #737273",
"L 	c #0F0F11",
"M 	c #252527",
"N 	c #5C5A5A",
"O 	c #2A292B",
"P 	c #8D8B8B",
"Q 	c #A3A0A0",
"R 	c #6C6A6A",
"S 	c #0E0E0E",
"T 	c #706EA6",
"U 	c #0E0EBF",
"V 	c #0F0FC4",
"W 	c #0D0DBE",
"X 	c #0E0EBD",
"Y 	c #0E0EC3",
"Z 	c #0E0EC0",
"` 	c #0C0CBD",
" .	c #0C0CB2",
"..	c #0E0EBE",
"+.	c #0E0EBB",
"@.	c #0C0CAD",
"#.	c #0D0DB3",
"$.	c #0B0BA5",
"%.	c #070764",
"&.	c #0D0DBB",
"*.	c #0B0B9F",
"=.	c #050556",
"-.	c #090986",
";.	c #949192",
">.	c #2F2E2F",
",.	c #878585",
"'.	c #3C3B3B",
").	c #161618",
"!.	c #898686",
"~.	c #757373",
"{.	c #181818",
"].	c #383737",
"^.	c #6B6969",
"/.	c #828080",
"(.	c #4F4D4D",
"_.	c #939091",
":.	c #6D6B6B",
"<.	c #0C0B0B",
"[.	c #888686",
"}.	c #979494",
"|.	c #3E3E3E",
"1.	c #545354",
"2.	c #626061",
"3.	c #040406",
"4.	c #020202",
"5.	c #121212",
"6.	c #777575",
"7.	c #595757",
"8.	c #0B0B0B",
"9.	c #737172",
"0.	c #6E6C6C",
"a.	c #232224",
"b.	c #787575",
"c.	c #414040",
"d.	c #060505",
"e.	c #161616",
"f.	c #8E8C8C",
"g.	c #989696",
"h.	c #161617",
"i.	c #2E2D2E",
"j.	c #424141",
"k.	c #131212",
"l.	c #747171",
"m.	c #888585",
"n.	c #949191",
"o.	c #706E6E",
"p.	c #646262",
"q.	c #040404",
"r.	c #767474",
"s.	c #939191",
"t.	c #918E8E",
"u.	c #939090",
"v.	c #191818",
"w.	c #827F7F",
"x.	c #585757",
"                                                                                                      ",
"                                                                                                      ",
"                                                                                                      ",
"                                    . + + + + + + + + + + + + @ #                                     ",
"                                + + + + + + + + + + + + + + + + + + +                                 ",
"                            + + + + + + + + + + + + + + + + + + + + + + +                             ",
"                        + + + + + + + + + + + + $ + + + + + + + + + + + + + +                         ",
"                      + + + + + + + + + + + + + $ + + + + + + + + + + + + + + +                       ",
"                  + + + + + + + + + + + + + + + $ + + + + + + + + + + + + + + + +                     ",
"                  + + + + + + + + + + + + + + + $ + + + + + + + + + + + + + + + + +                   ",
"                + + + + + + + + + + + + + + % + $ + + + + + + + + + + + + + + + + + +                 ",
"              + + + + + + + + + + + + + + + % + $ + + + + + + + + + + + + + + + + + + +               ",
"            + + + + + + + + + + + + + + + + % + $ + + + + + + + + + + + + + + + + + + + +             ",
"            + + + + + + + + + + + + + + + + % + $ + + + + + + + + + + + + + + + + + + + +             ",
"          + + + + + + + + + + + + + + + + + % + $ + + + + + + + + + + + + + + + + + + + + +           ",
"          + + + + + + + + + & * + + + + + + + + $ + + + + + + + + + + + + + + + + + + + + +           ",
"        + + + + + + + + + = - ; * + + + + + + + $ & + + + + + + + + + + + + + + > , + + + + +         ",
"        + + + + + + + & ' ) ! ! ~ + + + + + + { $ & + + + ] ^ / + + + + + + + + ( _ : + + + +         ",
"      + + + + + + + + < [ ! ! ! } , + + + + + { $ + + * | ! ! 1 + + + + + + + 2 ! ! ! 3 + + + +       ",
"      + + + + + + + % 4 ! ! 5 6 ! 7 8 + + % : ! ! 9 & 0 ! ! a a b + + + + + + c ! ! ! d e + + +       ",
"      + + + + + + + : f a g + ' h i j % + k = ! ! l 3 ! ! m n o a p + + + + q ! a r s ! t k + +       ",
"      + + u v + + + w x ! y + q z a A q + k B { a C D ! E + F ! ! G + + + + H ! a v % ! I J + +       ",
"      + + J ! + + + K a { 9 + : L M N & + + O { { ! ; ! y + % P h I v + + q ! a Q & & R S 7 * +       ",
"      + + T U V V V V V V V V V W V X Y V V V V V Z `  ...V V X +.@.#.V V $.%.&.V V V *.=.-.;.+       ",
"      + + ( >.+ + + ,.! '.+ + * ~ ).! @ + * a O + { { { + + + * ! ! !.+ + ~.{.].F + + * ^.! /.v       ",
"      + : (.! _.+ & :.<.[.+ + & }.|.! ! : y a 1.v O { 2.+ + + q ] 3.4.y 0 ! 5.6.+ + + + [.] ; u       ",
"      + @ 7.! ! + u ! 8.}.+ + + * 9.! ! 0.I a 3 + & $ + + + + + ' a.! b.c.d.e.f.+ + + + F : 9 q       ",
"      + + r ! ! Q g.h.S F + + + & < i.! j.! ! ~ + + $ + + + + + & e ! 4.I k.l.+ + + + + + + + +       ",
"      + + Q [ ! m.n.a o.& + + + + v = ! 8.! p.k + + $ + + + + + + v < ! q.r.+ + + + + + + + + +       ",
"      + + + 0.! d ; ! n v + + + & + F s.! a % + + + $ + + + + + + + + t.u.& + + + + + + + + + +       ",
"      + + + u ! ! v.! v + + + + + + + + w.^.+ + + + $ + + + + + + + + + + + + + + + + + + + +         ",
"        + + * D ! o x.+ + + + + + + + + + + + & + + $ + + + + + + + + + + + + + + + + + + + +         ",
"        + + + % | ! p + + + + + + & + + + + + + + & $ + + + + + & + + + + + + + + + + + + + +         ",
"          + + + % !.+ + + + + + + + + + + + + + + & $ + + + + + + + + + + + + + + + + + + +           ",
"          + + + + + + + + + + + + + & & + + + + + & $ + + + + + + + + + + + + + + + + + + +           ",
"            + + + + + + + + + + + + + + + + + + + & $ + + + + + + + + + + + + + + + + + +             ",
"            + + + + + + + + + + + + + + + + + + + + $ + + + + + + + + + + + + + + + + +               ",
"              + + + + + + + + + + + + + + + + + + & $ + + + + + + + + + + + + + + + + +               ",
"                + + + + + + + + + + + + + + + + + & $ + + + + + + + + + + + + + + + +                 ",
"                  + + + + + + + + + + + + + + + + % $ + + + + + + + + + + + + + + +                   ",
"                    + + + + + + + + + + + + + + + v $ + + + + + + + + + + + + + +                     ",
"                      + + + + + + + + + + + + + + * $ + + + + + + + + + + + + +                       ",
"                        + + + + + + + + + + + + + % $ + + + + + + + + + + + +                         ",
"                            + + + + + + + + + + + + k + + + + + + + + + +                             ",
"                                + + + + + + + + + + + + + + + + + + +                                 ",
"                                      + + + + + + + + + + + + +                                       ",
"                                              +                                                       ",
"                                                                                                      ",
"                                                                                                      "};
