/* XPM */
static const char * declick_w_dark_xpm[] = {
"28 28 9 1",
" 	c None",
".	c #FFFFFF",
"+	c #F90707",
"@	c #E88484",
"#	c #52524D",
"$	c #F8F8F6",
"%	c #FFFFFD",
"&	c #FDFFFF",
"*	c #FFFFFA",
"                            ",
"                            ",
"                            ",
"                            ",
"                            ",
"                            ",
"                  .         ",
"               +@ . @+      ",
"      .        @+@.@+@      ",
"   +@ . @+      @+.+@       ",
"   @+@.@+@       @+@        ",
"    @+.+@       @+.+@       ",
"     @+@       @+@. +@      ",
"    @+.+@      +@ . @+      ",
"   @+@. +@       #.#        ",
"   +@ . @+      #$%&#       ",
"      .    # #  %%#&%       ",
"      .    %%& #&# #%#      ",
"  ..#...   %#& %&   %&      ",
"  #.#.#.  #% % %#   #&   .# ",
"   .#. .  && & &     &# #.# ",
"   ... .  &# %#%     %.#..  ",
"   #.# . #%# *&&     #%..#  ",
"    #  %#%%# #*#      ####  ",
"      #%.%#   #        #    ",
"      ####                  ",
"                            ",
"                            "};
