/* XPM */
static char * declick2_xpm[] = {
"50 49 25 1",
" 	c None",
".	c #F40909",
"+	c #000002",
"@	c #0C0C0E",
"#	c #010103",
"$	c #060608",
"%	c #040406",
"&	c #1D1D1F",
"*	c #0E0E10",
"=	c #262628",
"-	c #0F0FC4",
";	c #18181A",
">	c #000001",
",	c #000000",
"'	c #020000",
")	c #313133",
"!	c #08080A",
"~	c #232325",
"{	c #252526",
"]	c #191919",
"^	c #0F0F11",
"/	c #030305",
"(	c #070709",
"_	c #0D0D0F",
":	c #111114",
"                                                  ",
"                                                  ",
"                                                  ",
"                                                  ",
"                                                  ",
"                                                  ",
"                        .                         ",
"                        .                         ",
"                        .                         ",
"                        .                         ",
"                        .                         ",
"                        .                         ",
"                        .                         ",
"                        .                         ",
"                        .                         ",
"                        .                         ",
"                        .                         ",
"             +++       +.                         ",
"             +++@      +.    +++        +++       ",
"            ++  +      ++   +++++       ++++      ",
"            #+  $+     ++  ++  %+      ++  +      ",
"           &+   $+     ++  ++  ++      ++  ++     ",
"      +    ++   *=    ++++ +    %+    ++    +     ",
"      ----------------------------------------    ",
"      +    ++    ;+   ++ +++    ++    >,     '    ",
"      +    +     )++  ++ ++      !+  +,           ",
"      ++  ++      ++ ++   .      ~+  >,           ",
"      ++  {]      ^+ ++   .       /++,            ",
"       +  +        +++    .        +>             ",
"       +] +         (_    .                       ",
"       ++++               .                       ",
"        +:                .                       ",
"         +                .                       ",
"                          .                       ",
"                          .                       ",
"                          .                       ",
"                          .                       ",
"                          .                       ",
"                          .                       ",
"                          .                       ",
"                          .                       ",
"                          .                       ",
"                          .                       ",
"                                                  ",
"                                                  ",
"                                                  ",
"                                                  ",
"                                                  ",
"                                                  "};
