/* XPM */
static char * declick5_xpm[] = {
"50 49 200 2",
"  	c None",
". 	c #414141",
"+ 	c #424242",
"@ 	c #444444",
"# 	c #5C5C5C",
"$ 	c #515151",
"% 	c #4C4C4C",
"& 	c #484848",
"* 	c #5F5F5F",
"= 	c #747474",
"- 	c #464646",
"; 	c #494949",
"> 	c #4B4B4B",
", 	c #4D4D4D",
"' 	c #4E4E4E",
") 	c #4F4F4F",
"! 	c #505050",
"~ 	c #6B6B6B",
"{ 	c #474747",
"] 	c #525252",
"^ 	c #545454",
"/ 	c #555555",
"( 	c #565656",
"_ 	c #575757",
": 	c #585858",
"< 	c #535353",
"[ 	c #646464",
"} 	c #9E9E9E",
"| 	c #595959",
"1 	c #5B5B5B",
"2 	c #F40909",
"3 	c #5E5E5E",
"4 	c #5D5D5D",
"5 	c #5A5A5A",
"6 	c #717171",
"7 	c #616161",
"8 	c #636363",
"9 	c #666666",
"0 	c #676767",
"a 	c #656565",
"b 	c #626262",
"c 	c #606060",
"d 	c #9C9C9C",
"e 	c #696969",
"f 	c #6A6A6A",
"g 	c #6C6C6C",
"h 	c #6E6E6E",
"i 	c #6F6F6F",
"j 	c #6D6D6D",
"k 	c #686868",
"l 	c #8E8E8E",
"m 	c #727272",
"n 	c #767676",
"o 	c #777777",
"p 	c #757575",
"q 	c #707070",
"r 	c #787878",
"s 	c #7C7C7C",
"t 	c #7E7E7E",
"u 	c #7F7F7F",
"v 	c #7D7D7D",
"w 	c #7B7B7B",
"x 	c #7A7A7A",
"y 	c #797979",
"z 	c #999999",
"A 	c #808080",
"B 	c #838383",
"C 	c #858585",
"D 	c #868686",
"E 	c #878787",
"F 	c #848484",
"G 	c #828282",
"H 	c #818181",
"I 	c #AEAEAE",
"J 	c #8B8B8B",
"K 	c #8D8D8D",
"L 	c #8F8F8F",
"M 	c #8C8C8C",
"N 	c #8A8A8A",
"O 	c #898989",
"P 	c #888888",
"Q 	c #D1D1D1",
"R 	c #FFFFFF",
"S 	c #929292",
"T 	c #949494",
"U 	c #959595",
"V 	c #969696",
"W 	c #939393",
"X 	c #919191",
"Y 	c #909090",
"Z 	c #9B9B9B",
"` 	c #9D9D9D",
" .	c #9A9A9A",
"..	c #989898",
"+.	c #979797",
"@.	c #C0C0C0",
"#.	c #9F9F9F",
"$.	c #A2A2A2",
"%.	c #A3A3A3",
"&.	c #A4A4A4",
"*.	c #A1A1A1",
"=.	c #A0A0A0",
"-.	c #A5A5A5",
";.	c #A7A7A7",
">.	c #A9A9A9",
",.	c #AAAAAA",
"'.	c #A8A8A8",
").	c #A6A6A6",
"!.	c #CDCDCD",
"~.	c #020204",
"{.	c #000002",
"].	c #ADADAD",
"^.	c #AFAFAF",
"/.	c #B0B0B0",
"(.	c #ACACAC",
"_.	c #ABABAB",
":.	c #B4B4B4",
"<.	c #E5E5E5",
"[.	c #666667",
"}.	c #2A2A2B",
"|.	c #B2B2B2",
"1.	c #B3B3B3",
"2.	c #070709",
"3.	c #B1B1B1",
"4.	c #F0F0F0",
"5.	c #BFBFBF",
"6.	c #767677",
"7.	c #B7B7B7",
"8.	c #B8B8B8",
"9.	c #0C0C0E",
"0.	c #B6B6B6",
"a.	c #B5B5B5",
"b.	c #151517",
"c.	c #D8D8D8",
"d.	c #010103",
"e.	c #282829",
"f.	c #060608",
"g.	c #2D2D2F",
"h.	c #B9B9B9",
"i.	c #BBBBBB",
"j.	c #A0A0A1",
"k.	c #040406",
"l.	c #BCBCBC",
"m.	c #BABABA",
"n.	c #E4E4E4",
"o.	c #1F1F20",
"p.	c #9C9C9D",
"q.	c #BDBDBD",
"r.	c #474749",
"s.	c #BEBEBE",
"t.	c #030305",
"u.	c #D7D7D7",
"v.	c #838384",
"w.	c #111113",
"x.	c #262628",
"y.	c #6E6E6F",
"z.	c #2E2E30",
"A.	c #C1C1C1",
"B.	c #949495",
"C.	c #252526",
"D.	c #FDFDFE",
"E.	c #6868A4",
"F.	c #0F0FC4",
"G.	c #B8B8B9",
"H.	c #323233",
"I.	c #404041",
"J.	c #18181A",
"K.	c #2F2F31",
"L.	c #C3C3C3",
"M.	c #C2C2C2",
"N.	c #020000",
"O.	c #0F0F11",
"P.	c #535355",
"Q.	c #5E5E5F",
"R.	c #303031",
"S.	c #707071",
"T.	c #08080A",
"U.	c #363636",
"V.	c #373739",
"W.	c #232323",
"X.	c #C4C4C4",
"Y.	c #191919",
"Z.	c #4E4E4F",
"`.	c #3A3A3A",
" +	c #DDDDDD",
".+	c #0B0B0D",
"++	c #070708",
"@+	c #FCFCFC",
"#+	c #969697",
"$+	c #0D0D0F",
"%+	c #D6D6D6",
"&+	c #232324",
"*+	c #111114",
"=+	c #F1F1F1",
"-+	c #737373",
";+	c #F6F6F6",
">+	c #DBDBDB",
",+	c #CACACA",
"'+	c #4A4A4A",
")+	c #525253",
"                                                                                                    ",
"                                                                                                    ",
"                                                                                                    ",
"                                  . + @ # $ % & & & & & * = $ -                                     ",
"                              @ - & ; > % , ' ) ) ! ! ! ) ) ' , ~                                   ",
"                          { ; > , ) $ ] ^ / ( _ _ _ : _ _ _ ( / ^ < [ }                             ",
"                      ; > ' ! ] ^ ( : | 1 # 2 3 * * * * * 3 3 4 # 1 5 | 6                           ",
"                    ' ! ] / _ | 1 4 * 7 8 [ 2 9 9 0 0 0 0 9 9 a [ 8 b 7 c * d                       ",
"                ! < / _ 5 # * 7 8 a 0 e f g 2 h i i i i i i h j g ~ f e k 0 9 l                     ",
"                _ 5 # * 7 8 9 k ~ j i 6 m = 2 n o o o o o o n p = = m 6 q i h j l                   ",
"              4 * 7 [ 9 e ~ h q m = o r r s 2 t u u u u u u t v v s w x y r n p p z                 ",
"            7 8 9 k ~ j q m p o x s t A A B 2 C D E E E E E D D C F B G H A u t v s I               ",
"          9 k ~ j i m = o y s u H B C E E J 2 K l l L L L l l K M M J N O P E D C F B Q R R R R R R ",
"          j i 6 = n y w t H B D P N K L l S 2 T U V V V V V V U T W S X Y L l K K M J z R R R R R R ",
"        m = n r w v A G C E N M L X W U U z 2 Z d ` ` ` ` ` ` d Z Z  .z ..+.V U T W W S @.R R R R R ",
"        r x s u H B D O J l Y W U .. .d } #.2 $.%.%.&.&.&.&.%.%.$.*.=.=.#.} ` d Z  . .z #.R R R R R ",
"      v t A B C E N M L X T +.z d } =.$.&.-.2 ;.>.,.,.,.,.,.,.>.>.'.;.).-.&.%.%.$.*.=.=.#.!.R R R R ",
"    R W F D P N M L S ~.{.{.W #.*.%.).'.>.{.2 ].^.^./././././.^.I I ].(._.,.,.>.'.;.;.).-.:.R R R R ",
"R R <.E O J K L S T [.{.{.{.}.%.).'.,.(.I {.2 |.1.:.:.{.{.2.:.:.1.1.|.3./.^.{.{.{._.(._.,.,.4.R R R ",
"R R 5.J K L X W V U {.{.6.Y {.).>.(.^.^.|.{.{.7.8.3.{.{.{.{.9.8.8.7.0.0.a.I {.{.{.b././.^.^.c.R R R ",
"R R _.l Y S U +.z [.d.e.%.).f.g.I /.|.|.0.{.{.h.i.{.{.j.$.k.{.l.l.i.m.h.h.{.{.a.I {.:.:.1.|.n.R R R ",
"R R #.X W U +. . .o.{.L ).>.2.{.,.1.a.7.p.{.{.B q.{.r.5.i.{.{.3.s.s.q.l.:.{.{.h.7.{.t.0.0.a.u.R R R ",
"R R ..W {.+. .d v.{.{.d '.>.w.x.y.a.7.h.z.{.{.{.m.{.0.A.@.8.k.d.@.@.5.s.d.d.:.m.h.B.C.8.8.7.8.R R R ",
"D.R W E.F.F.F.F.F.F.F.F.F.F.F.F.F.F.F.F.F.F.F.F.F.F.F.F.F.F.F.F.F.F.F.F.F.F.F.F.F.F.F.F.G.h.8.R R R ",
"R R W U H.z Z ` } {.I.;.,.(.,.J.{.^.8.m.{.K.5.{.{.{.L.L.L.L.{.{.M.A.A.@.H.{ 8.q.l.m.i.N.h.h.M.R R R ",
"R R S T {.v. .d +.O.&.;.>._.I P.{.{.8.m.{.Q.i.R.{.S.M.M.L.L.s.T.t.A.@.~.U.8.q.l.i.i.m.h.h.8.h.R R R ",
"R R V S d.{.z z {.O.%.-.'.,._.j.{.{.|.d.{.i.q.s.2 @.A.A.A.A.A.V.{.5.5.W.( l.i.m.m.h.a.8.7.0.X.R R R ",
"R R ` Y {.{.V +.C.Y.=.%.).'.,.].Z.{.|.{.{.m.i.l.2 s.5.5.5.5.5.i.t.t.~.`.a.m.h.8.7.7.0.a.:.:. +R R R ",
"R R >.K O {.W U {.V d =.%.-.'._.].{..+{.$.7.h.m.2 i.l.l.l.l.l.i.m.{.++0.8.7.0.a.:.1.1.|.3.3.@+R R R ",
"R R s.O J {.Y.O {.V #+d #.$.%.;.>.).2.$+|.1.a.0.2 8.8.8.8.8.8.7.7.1.a.:.1.|.3.3./.^.I ].].(.%+R R R ",
"R R n.F E {.{.&+{.L U ..Z ` =.$.-.;.>.>.I ^.3.|.2 1.:.:.:.:.1.1.|.3.3./.^.I ].(._.,.>.'.'.;.R R R R ",
"      Y H A {.*+P K Y W U ..Z } =.$.-.;.>.>.(.].2 I ^.^.^.^.I I ].(._.,.>.'.;.).).-.&.%.$./.R R R R ",
"      |.s t u {.F P N K Y W U +. .` #.*.%.-.).).2 >.>.>.>.>.;.'.;.).-.&.%.$.*.=.#.} ` d Z =+R R R R ",
"        v r x s u G F E N M L S T +.z Z ` } =.=.2 $.%.%.%.$.$.*.*.=.#.} ` Z  .z ..+.V U %.R R R R R ",
"        %.6 -+n r w v A B D P J K L S T V ..z z 2 d d d d d Z  . .z ..+.U T W S X Y L ).;+R R R R R ",
"          y j i 6 = o x s u G F E O J l L X S S 2 U U U U U T W S X Y L l K M N O P E 4.R R R R R R ",
"          l.a k f j q m p r x v A G F D P N J M 2 K K l K K M M J N O E D C F B H A S               ",
"            S 7 8 9 e ~ h 6 -+n r w v u H G B B 2 D D D D C C F B G H A t v s w x r                 ",
"              t # * 7 [ 0 e g h 6 -+p o y x s s 2 t t t t v s s w x r o n p -+m 6 >+                ",
"                p : 5 4 * b a 0 e g h q 6 -+= -+2 n n n n p p = -+m q i h j ~ f ,+                  ",
"                  o < / : 5 4 * b [ 9 k e ~ g f 2 h h h h j g g ~ f k 0 9 a 8                       ",
"                    O ' $ < ( : 5 # 3 c 7 8 [ 8 2 9 9 9 a a [ 8 b 7 c * 4 #                         ",
"                        7 % ' $ < / _ : 5 1 # # 2 3 3 3 4 4 # 1 5 | : _ i                           ",
"                            | '+% ' ! $ < ^ / ( )+( ( ( ( / / ^ < ] b d                             ",
"                                b % & '+> % , ' ' ) ) ) ' ' , $ e                                   ",
"                                        t ! - { { { % ] [                                           ",
"                                                                                                    ",
"                                                                                                    ",
"                                                                                                    "};
