/* XPM */
static char * declick_dark_xpm[] = {
"28 28 12 1",
" 	c None",
".	c #F32626",
"+	c #DFDFDF",
"@	c #F42626",
"#	c #E79191",
"$	c #E89696",
"%	c #F42727",
"&	c #F32727",
"*	c #E79A9A",
"=	c #E79E9E",
"-	c #E0E0E0",
";	c #DEDEDE",
"                            ",
"                            ",
"      .  ++  @              ",
"      @@ ++ @@              ",
"       @@#$@@               ",
"        @%@@                ",
"        %@@&                ",
"        @%%@                ",
"       @@*=@@               ",
"      @@ ++ @@              ",
"      @  ++  %              ",
"         ++                 ",
"         ++                 ",
"         ++     -+;         ",
"         ++    ++++         ",
"         ++   -+; +-        ",
"         ++   ++  ++    ++  ",
"  ++    ;+++  ++  ;+    ++  ",
"  ++   ++-++  ++  ;+-   +-  ",
"  ;+   ++ ++  ++   +-  ;+   ",
"  ++   ++ -+  ++   ++  ++   ",
"   ++  ++  +; +-   ++  +-   ",
"   ++  ++  +- ++    ++++    ",
"   ++ -++  -+++     +--     ",
"    +++;    ++              ",
"     ++                     ",
"                            ",
"                            "};
