/* XPM */
static const char * declick3_xpm[] = {
"50 50 63 1",
" 	c None",
".	c #F9094D",
"+	c #070002",
"@	c #020000",
"#	c #010508",
"$	c #020609",
"%	c #010608",
"&	c #030501",
"*	c #030401",
"=	c #040601",
"-	c #010300",
";	c #010200",
">	c #030603",
",	c #050703",
"'	c #010301",
")	c #050203",
"!	c #040103",
"~	c #040104",
"{	c #070307",
"]	c #050104",
"^	c #070407",
"/	c #090508",
"(	c #0D0A0D",
"_	c #060305",
":	c #080408",
"<	c #03050F",
"[	c #020410",
"}	c #00010D",
"|	c #02040F",
"1	c #01020E",
"2	c #02030F",
"3	c #02030E",
"4	c #030611",
"5	c #050611",
"6	c #030410",
"7	c #02020E",
"8	c #01030E",
"9	c #00020E",
"0	c #2909E2",
"a	c #08080C",
"b	c #09090E",
"c	c #030308",
"d	c #05050A",
"e	c #07070C",
"f	c #010107",
"g	c #020208",
"h	c #040409",
"i	c #030309",
"j	c #05050B",
"k	c #08070D",
"l	c #08080E",
"m	c #04040A",
"n	c #020207",
"o	c #020202",
"p	c #090909",
"q	c #050505",
"r	c #0A0A0A",
"s	c #060606",
"t	c #040404",
"u	c #030303",
"v	c #030403",
"w	c #010302",
"x	c #010201",
"                                                  ",
"                                                  ",
"                                                  ",
"                                                  ",
"                                                  ",
"                                                  ",
"                                                  ",
"                                                  ",
"                                                  ",
"                       .                          ",
"                       .                          ",
"                       .                          ",
"                       .                          ",
"                       .                          ",
"                       .                          ",
"                       .                          ",
"                    +  .  +                       ",
"                    +  .  @     +                 ",
"                    +  .  @     +   @      +      ",
"                    +  .  @  +  +   @      +      ",
"       @          # ++ #+ @  $  +  %@   +  +      ",
"       @  @  @    &*++ =+ -;=>+ +& ,@   ++ +'     ",
"       @ )@  @    +++@!!@~!!~~!!+{+]@^++/(!_^:    ",
"    @<@@@@@@@@@@@+[@@@}}@}}}}}}}+[|1@234567889    ",
"   00000000000000000000000000000000000000000000   ",
"    @@a@@@@@@+@@@@bcdcefgh@di@g@@j+h@klmijg+ng    ",
"    @  @@ @@  @+ @op+qors@@qt+ u@+ u@   ut +q     ",
"       @@ +   @  @+ ++ v+ @  @  @  w@    + ++     ",
"              @   + +  x  @  @  @   @      +      ",
"                  + +  .  @     @   @      +      ",
"                  + +  .  @     @          +      ",
"                    +  .  @     +          +      ",
"                       .                          ",
"                       .                          ",
"                       .                          ",
"                       .                          ",
"                       .                          ",
"                       .                          ",
"                       .                          ",
"                       .                          ",
"                                                  ",
"                                                  ",
"                                                  ",
"                                                  ",
"                                                  ",
"                                                  ",
"                                                  ",
"                                                  ",
"                                                  ",
"                                                  "};
