/* XPM */
static const char * decrackle_xpm[] = {
"28 28 10 1",
" 	c None",
".	c #FF0519",
"+	c #000000",
"@	c #ADADB2",
"#	c #0A0505",
"$	c #070709",
"%	c #000002",
"&	c #020000",
"*	c #060608",
"=	c #262628",
"                            ",
"                            ",
"                            ",
"                            ",
"                            ",
"                            ",
"  . . +                 . . ",
"   .  +  . .   . .  . .  .  ",
"  .+. +   .     .    .  .+. ",
"   +  +  .+.   .+.  .+.  +  ",
"   +  +   +    @#@   +   +  ",
"   +  +   +   @$%&@  +   +  ",
"   +  +  @%@  %%+&%  +  @+@ ",
" +*&@ +  %%& +&@+@%@ +  +++ ",
" + %@ +  %@& +  + %& + @+@+ ",
" + =@ + @% % %@ + @& + ++ + ",
" + && + && & &  +  &@+@+@ + ",
" + @% + &@ %@%  +  %++++  + ",
" +  %@+@%@ +&&  +  @%++@  + ",
" +  %%+%%@ + @  +   @+@@ .+.",
".+. @%+%@  +   .+.   +    . ",
" .  @@%@  .+.   .   .+.  . .",
". .  .+.   .   . .   .      ",
"      .   . .       . .     ",
"                            ",
"                            ",
"                            ",
"                            "};
