/* XPM */
static char * estimate_xpm[] = {
"28 28 11 1",
" 	c None",
".	c #F90404",
"+	c #ADADB2",
"@	c #0A0505",
"#	c #070709",
"$	c #000002",
"%	c #020000",
"&	c #000000",
"*	c #060608",
"=	c #262628",
"-	c #000005",
"                            ",
"                            ",
"                            ",
"            .....           ",
"            .   .           ",
"                .           ",
"                .           ",
"              ..            ",
"              .             ",
"              .             ",
"                            ",
"              .             ",
"                            ",
"                +           ",
"               +@+          ",
"              +#$%+      +  ",
"         +$+  $$+%$     +&+ ",
"  *%+    $$% +%+ +$+    &&& ",
"   $+    $+% $%   $%   +&+& ",
"   =+   +$ $ $+   +%   && + ",
"   %%   %% % %     %+ +&+   ",
"   +$   %+ $+$     $&+&&    ",
"    $+ +$+ -%%     +$&&+    ",
"    $$+$$+ +-+      ++++    ",
"    +$&$+   +        +      ",
"    ++$+                    ",
"      +                     ",
"                            "};
