/* XPM */
static char * filter_xpm[] = {
"28 28 2 1",
" 	c None",
".	c #000000",
"                            ",
"                            ",
"                            ",
"                            ",
"                       .....",
"                  ..........",
"               .......      ",
"             ....           ",
"             ...            ",
"            ...             ",
"            ..              ",
"            ..              ",
"           ..               ",
"           ..               ",
"           ..               ",
"          ..                ",
"         ..                 ",
"    . .....                 ",
".........                   ",
"...  .                      ",
"                            ",
"                            ",
"                            ",
"                            ",
"                            ",
"                            ",
"                            ",
"                            "};
