/* XPM */
static const char * gtk_wave_cleaner_xpm[] = {
/* columns rows colors chars-per-pixel */
"48 48 239 2 ",
"   c black",
".  c #010101",
"X  c #000002",
"o  c #020202",
"O  c gray1",
"+  c #000006",
"@  c #040404",
"#  c gray2",
"$  c #060606",
"%  c #03030A",
"&  c gray3",
"*  c #090909",
"=  c gray4",
"-  c #0C0C0C",
";  c gray5",
":  c #0E0E0E",
">  c gray6",
",  c #100000",
"<  c #170707",
"1  c #000010",
"2  c #030312",
"3  c #000017",
"4  c #030317",
"5  c #000018",
"6  c #000019",
"7  c #00001D",
"8  c #101010",
"9  c #111111",
"0  c #131313",
"q  c gray8",
"w  c #151515",
"e  c #161616",
"r  c gray9",
"t  c #181818",
"y  c gray10",
"u  c #1B1B1B",
"i  c #19191C",
"p  c gray11",
"a  c #1E1E1E",
"s  c gray12",
"d  c #2E1E1E",
"f  c #000027",
"g  c #090922",
"h  c #00002C",
"j  c #0B0B28",
"k  c #07073A",
"l  c gray13",
"z  c #222222",
"x  c #232327",
"c  c gray14",
"v  c #252525",
"b  c gray15",
"n  c #272727",
"m  c #282828",
"M  c #2A2A2A",
"N  c gray17",
"B  c #2C2C2C",
"V  c gray18",
"C  c #2F2F2F",
"Z  c #313131",
"A  c #353535",
"S  c gray21",
"D  c #373737",
"F  c #35353B",
"G  c #393939",
"H  c #3A3A3A",
"J  c gray23",
"K  c #3F3F3F",
"L  c #4A0D0D",
"P  c #4A0F0F",
"I  c #630909",
"U  c #630C0C",
"Y  c #7D0B0B",
"T  c #7D0F0F",
"R  c #181842",
"E  c #000059",
"W  c #000075",
"Q  c #0E0E75",
"!  c #000079",
"~  c gray25",
"^  c #414141",
"/  c gray26",
"(  c #434343",
")  c #444444",
"_  c gray27",
"`  c #464646",
"'  c gray28",
"]  c #43434A",
"[  c #484848",
"{  c #494949",
"}  c gray29",
"|  c gray30",
" . c #4E4E4E",
".. c gray31",
"X. c #505050",
"o. c gray32",
"O. c #515157",
"+. c gray33",
"@. c #565656",
"#. c gray34",
"$. c #585858",
"%. c #5B5B5B",
"&. c gray36",
"*. c #5D5D5D",
"=. c #5F5F5F",
"-. c #606060",
";. c gray38",
":. c #626262",
">. c gray39",
",. c #656565",
"<. c #60606A",
"1. c #686868",
"2. c DimGray",
"3. c #6C6C6C",
"4. c #6F6F6F",
"5. c #736363",
"6. c gray44",
"7. c #717171",
"8. c #727272",
"9. c #767676",
"0. c #7C7575",
"q. c gray47",
"w. c #797979",
"e. c #7C7C7C",
"r. c gray49",
"t. c #E80000",
"y. c #E90101",
"u. c red",
"i. c #F30B0B",
"p. c #E80017",
"a. c #EB0317",
"s. c #F81010",
"d. c #FD1517",
"f. c #FF1717",
"g. c #000096",
"h. c #0000A4",
"j. c #0000B0",
"k. c #1717BD",
"l. c #1818C4",
"z. c #0000DD",
"x. c #0000EB",
"c. c #1000EF",
"v. c #1B1BE0",
"b. c #1C1CE9",
"n. c #1D1DEB",
"m. c #0000F8",
"M. c #0000FA",
"N. c #0000FB",
"B. c blue",
"V. c #1E1EF4",
"C. c #1F1FFF",
"Z. c #2D1DEF",
"A. c gray52",
"S. c gray53",
"D. c #898989",
"F. c gray55",
"G. c #8E8E8E",
"H. c gray56",
"J. c #909090",
"K. c #9B9B9B",
"L. c gray62",
"P. c #9797A7",
"I. c #9A9AAA",
"U. c gray64",
"Y. c #A4A4A4",
"T. c gray65",
"R. c #A7A7A7",
"E. c gray66",
"W. c #A9A9A9",
"Q. c #AAAAAA",
"!. c #ACACAC",
"~. c #AEAEAE",
"^. c #AFAFAF",
"/. c #B1B1B1",
"(. c gray70",
"). c #B4B4B4",
"_. c gray71",
"`. c #B9B9B9",
"'. c #BBBBBB",
"]. c gray",
"[. c gray75",
"{. c #CCBCBC",
"}. c #B0B0C2",
"|. c #B1B1C3",
" X c #C0C0C0",
".X c #C1C1C1",
"XX c #C3C3C3",
"oX c gray77",
"OX c #C5C5C5",
"+X c #C6C6C6",
"@X c gray78",
"#X c #C8C8C8",
"$X c gray79",
"%X c #CBCBCB",
"&X c gray80",
"*X c #CECECE",
"=X c gray81",
"-X c #DECECE",
";X c #C6C6DB",
":X c #C7C7DC",
">X c #D0D0D0",
",X c gray82",
"<X c #D2D2D2",
"1X c LightGray",
"2X c gray83",
"3X c #D5D5D5",
"4X c #D7D7D7",
"5X c #D8D8D8",
"6X c gray85",
"7X c #DADADA",
"8X c gray86",
"9X c #DDDDDD",
"0X c #DFDFDF",
"qX c #E9D9EF",
"wX c gray89",
"eX c #E7E7E7",
"rX c gray91",
"tX c #ECECEC",
"yX c gray93",
"uX c #EEEEEE",
"iX c #EFEFEF",
"pX c #FFEFEF",
"aX c #E7E7FF",
"sX c gray94",
"dX c #F1F1F1",
"fX c gray95",
"gX c #F4F4F4",
"hX c gray96",
"jX c #F6F6F6",
"kX c gray97",
"lX c #F8F8F8",
"zX c #F9F9F9",
"xX c gray98",
"cX c #FBFBFB",
"vX c gray99",
"bX c #FDFDFD",
"nX c #FEFEFE",
"mX c gray100",
"MX c None",
/* pixels */
"MXMXMXMXMXMXMXMXMXMXMXMXMXMXMXMXMXMXMX    # #     #       MXMXMXMXMXMXMXMXMXMXMXMXMXMXMXMXMXMXMX",
"MXMXMXMXMXMXMXMXMXMXMXMXMXMXMXMX      8 m } -.0.Y U L V 8       MXMXMXMXMXMXMXMXMXMXMXMXMXMXMXMX",
"MXMXMXMXMXMXMXMXMXMXMXMXMXMX#   m q.$XmXmXmXmXpXu.u.f.mXmX$Xq.m       MXMXMXMXMXMXMXMXMXMXMXMXMX",
"MXMXMXMXMXMXMXMXMXMXMXMX    -.8XmXmXmXmXmXmXmXpXu.u.f.mXmXmXmXmX3X1.    MXMXMXMXMXMXMXMXMXMXMXMX",
"MXMXMXMXMXMXMXMXMXMX#   ) =XmXmXmXmXmXmXmXmXmXpXu.u.f.mXmXmXmXmXmXmX<X}     MXMXMXMXMXMXMXMXMXMX",
"MXMXMXMXMXMXMXMXMX# = /.mXmXmXmXmXmXmXmXmXmXmXpXu.u.f.mXmXmXmXmXmXmXmXmX).; # MXMXMXMXMXMXMXMXMX",
"MXMXMXMXMXMXMXMX  l 3XmXmXmXmXmXmXmXmXmXmXmXmXpXu.u.i.3XmXmXmXmXmXmXmXmXmX8Xc   MXMXMXMXMXMXMXMX",
"MXMXMXMXMXMXMX  ^ tXmXmXmXmXmXmXmXmXmXmXmXmXmX{.u.u.t.  [.mXmXmXmXmXmXmXmXmXfX)   MXMXMXMXMXMXMX",
"MXMXMXMXMXMX  ^ xXmXmXmXmXmXmXmXmXmXmXmXmXmXtXd u.u.t.  c jXmXmXmXmXmXmXmXmXmXxX}   MXMXMXMXMXMX",
"MXMXMXMXMX# l tXmXmXmXmXmXmXmXmXmXmXmXmXmXmX1., u.u.s.    9.mXmXmXmXmXmXmXmXmXmXfXm   MXMXMXMXMX",
"MXMXMXMX  = <XmXmXmXmXmXmXmXmXmXmXmXmXmXmXwX# , u.u.f.@.    0XmXmXmXmXmXmXmXmXmXmX8X8 # MXMXMXMX",
"MXMXMXMX  Y.mXmXmXmXmXmXmXmXmXmXmXmXmXmXmX4.  < u.u.f.eX=   S.mXmXmXmXmXmXmXmXmXmXmX/.  MXMXMXMX",
"MXMXMX# A mXmXmXmXmXmXmXmXmXmXmXmXmXmXmXjX=   5.u.u.f.mX|   V mXmXmXmXmXmXmXmXmXmXmXmX) # MXMXMX",
"MXMXMX  .XmXmXmXmXmXmXmXmXmXmXmXmXmXmXmX/.    -Xu.u.f.mXY.    3XmXmXmXmXmXmXmXmXmXmXmX=X  MXMXMX",
"MXMX  } mXmXmXmXmXmXmXmXmXmXmXmXmXmXmXmX-.  m pXu.u.f.mXjX=   r.mXmXmXmXmXmXmXmXmXmXmXmX*.  MXMX",
"MXMX  $XmXmXmXmXmXmXmXmXmXmXmXmXmXmXmXmXr   q.pXu.u.f.mXmX$.  c mXmXmXmXmXmXmXmXmXmXmXmX<X  MXMX",
"MX  q mXmXmXjXmXmXmXmXmXmXmXmXmXmXmXmXOX    OXpXu.u.f.mXmX/.    $XmXmXmXmXfX2.V ) q.mXmXmXa   MX",
"MX  2.mXmXD.= ) OXmXmXmXmXmXmXmXmXmXmX9.  q mXpXu.u.f.mXmXlX8   7.mXmXmX[.a         ^ tXmX7.  MX",
"MX  `.mX|       q xXmXmXmXmXmXmXmXmXmXm   *.mXpXu.u.f.mXmXmX-.  a mXmX3X=     X.G     X.mX.X  MX",
"MX# xXQ.    A     L.mXmXmXmXmXmXmXmX0X    Q.mXpXu.u.f.mXmXmX[.    ).jXV   8 .XmXmX4.    OXmX=   ",
"  a fXq   V mXG   Z mXmXmXmXmXmXmXmXJ.  # fXmXpXu.u.f.mXmXmXmXc   A 7.    Y.mXmXmXjXu   G mXc   ",
"  G S.    =XmXY.    .XmXmXmXmXmXmXmX^   ^ mXmXpXu.u.f.mXmXmXmXU.        *.mXmXmXmXmXL.    ^.^   ",
"# X.a   @.mXmXxXu   1.mXmXmXmXmXmXtX#   J.mXmXpXu.u.f.mXmXmXmXvXn     a fXmXmXmXmXmXxXm   m *.# ",
"# ]     }.aXaXaX<.  x aXaXaXaXaXaXP.    :XaXaXqXu.u.f.aXaXaXaXaX}.F i ;XaXaXaXaXaXaXaXI.    O.  ",
"% 7   h B.B.B.B.h.    x.B.B.B.B.B.E   f B.B.B.c.u.u.p.B.B.B.B.B.B.B.m.B.B.B.B.B.B.B.B.N.6   j   ",
"2 6   g.B.B.B.B.z.    j.B.B.B.B.N.1   W B.B.B.c.u.u.p.B.B.B.B.B.B.B.B.B.B.B.B.B.B.B.B.B.! + g # ",
"6 k v.V.C.C.C.C.C.4   Q C.C.C.C.k.    l.C.C.C.Z.u.u.a.C.C.C.C.C.C.C.C.C.C.C.C.C.C.C.C.C.n.n.R   ",
"  a mXmXmXmXmXmXmXX.  G mXmXmXmX4.  q mXmXmXmXpXu.u.f.mXmXmXmXmXmXmXmXmXmXmXmXmXmXmXmXmXmXmXc   ",
"MX# xXmXmXmXmXmXmXD.  = xXmXmXmXl   -.mXmXmXmXpXu.u.f.mXmXmXmXmXmXmXmXmXmXmXmXmXmXmXmXmXmXmX=   ",
"MX  `.mXmXmXmXmXmXOX    $XmXmX<X    ^.mXmXmXmXpXu.u.f.mXmXmXmXmXmXmXmXmXmXmXmXmXmXmXmXmXmX.X  MX",
"MX  2.mXmXmXmXmXmXxX=   F.mXmXS.  = jXmXmXmXmXpXu.u.f.mXmXmXmXmXmXmXmXmXmXmXmXmXmXmXmXmXmX7.  MX",
"MX  q mXmXmXmXmXmXmX^   | mXmXA   | mXmXmXmXmXpXu.u.f.mXmXmXmXmXmXmXmXmXmXmXmXmXmXmXmXmXmXl   MX",
"MXMX  $XmXmXmXmXmXmXr.  8 mXrX    L.mXmXmXmXmXpXu.u.f.mXmXmXmXmXmXmXmXmXmXmXmXmXmXmXmXmX=X  MXMX",
"MXMX# } mXmXmXmXmXmX`.    <XF.    rXmXmXmXmXmXpXu.u.f.mXmXmXmXmXmXmXmXmXmXmXmXmXmXmXmXmX*.  MXMX",
"MXMXMX  .XmXmXmXmXmXjX=   -.q   ^ mXmXmXmXmXmXpXu.u.f.mXmXmXmXmXmXmXmXmXmXmXmXmXmXmXmX=X  MXMXMX",
"MXMXMX  A mXmXmXmXmXmX1.        =XmXmXmXmXmXmXpXu.u.f.mXmXmXmXmXmXmXmXmXmXmXmXmXmXmXmX^ # MXMXMX",
"MXMXMXMX  Y.mXmXmXmXmX3Xu     1.mXmXmXmXmXmXmXpXu.u.f.mXmXmXmXmXmXmXmXmXmXmXmXmXmXmX).  MXMXMXMX",
"MXMXMXMX# = <XmXmXmXmXmX3X^ Q.mXmXmXmXmXmXmXmXpXu.u.f.mXmXmXmXmXmXmXmXmXmXmXmXmXmX0X; # MXMXMXMX",
"MXMXMXMXMX  l tXmXmXmXmXmXmXmXmXmXmXmXmXmXmXmXpXu.u.f.mXmXmXmXmXmXmXmXmXmXmXmXmXfXc   MXMXMXMXMX",
"MXMXMXMXMXMX  ^ xXmXmXmXmXmXmXmXmXmXmXmXmXmXmXpXu.u.f.mXmXmXmXmXmXmXmXmXmXmXmXmX}   MXMXMXMXMXMX",
"MXMXMXMXMXMXMX  ^ tXmXmXmXmXmXmXmXmXmXmXmXmXmXpXu.u.f.mXmXmXmXmXmXmXmXmXmXmXfX)   MXMXMXMXMXMXMX",
"MXMXMXMXMXMXMXMX  l 3XmXmXmXmXmXmXmXmXmXmXmXmXpXu.u.f.mXmXmXmXmXmXmXmXmXmX8Xc   MXMXMXMXMXMXMXMX",
"MXMXMXMXMXMXMXMXMX# ; /.mXmXmXmXmXmXmXmXmXmXmXpXu.u.f.mXmXmXmXmXmXmXmXmX).;   MXMXMXMXMXMXMXMXMX",
"MXMXMXMXMXMXMXMXMXMX    ^ $XmXmXmXmXmXmXmXmXmXpXu.u.f.mXmXmXmXmXmXmX=X)   # MXMXMXMXMXMXMXMXMXMX",
"MXMXMXMXMXMXMXMXMXMXMXMX    @.<XmXmXmXmXmXmXmXpXu.u.f.mXmXmXmXmX3X$.  # MXMXMXMXMXMXMXMXMXMXMXMX",
"MXMXMXMXMXMXMXMXMXMXMXMXMXMX    l q.OXmXmXmXmXpXu.u.f.mXmX$Xq.c   #   MXMXMXMXMXMXMXMXMXMXMXMXMX",
"MXMXMXMXMXMXMXMXMXMXMXMXMXMXMXMX      ; V } >.0.T U L V ;   #   MXMXMXMXMXMXMXMXMXMXMXMXMXMXMXMX",
"MXMXMXMXMXMXMXMXMXMXMXMXMXMXMXMXMXMXMX      #     @ @     MXMXMXMXMXMXMXMXMXMXMXMXMXMXMXMXMXMXMX"
};
