/* XPM */
static const char * noise_sample_dark_xpm[] = {
"28 28 7 1",
" 	c None",
".	c #FFFFFF",
"+	c #52524D",
"@	c #F5FAFA",
"#	c #F8F8F6",
"$	c #FFFFFD",
"%	c #FDFFFF",
"                            ",
"                            ",
"                 ...        ",
"                .....       ",
"                .....       ",
"                .....       ",
"            .... ...        ",
"             ....           ",
"            . ...           ",
"           .   ..           ",
"          .   . .           ",
"         .   .              ",
"        .   .               ",
"       . . .                ",
"       .  .                 ",
"       ...      +           ",
"               +@+          ",
"       +      +#$%+      +  ",
"     +..+     $$+%$     +.+ ",
"     .+ .    +%+ +$+    ... ",
"     .  .+   .%   $%   +.+. ",
"    +.  +.+  .+   +%   .. + ",
"  ++.    .. ..     %+ +.+   ",
"  ..+     +$  +    $.+..    ",
"           +       +$..+    ",
"                    ++++    ",
"                     +      ",
"                            "};
