/* XPM */
static const char * noise_sample_xpm[] = {
"28 28 8 1",
" 	c None",
".	c #000000",
"+	c #FFFFFF",
"@	c #ADADB2",
"#	c #0A0505",
"$	c #070709",
"%	c #000002",
"&	c #020000",
"                            ",
"                            ",
"                 ...        ",
"                .....       ",
"                .....       ",
"                .....       ",
"            ....+...        ",
"             ....           ",
"            .+...           ",
"           .+++..           ",
"          .+++. .           ",
"         .+++.              ",
"        .+++.               ",
"       .+.+.                ",
"       .++.                 ",
"       ...      @           ",
"               @#@          ",
"       @      @$%&@      @  ",
"     @..@     %%@&%     @.@ ",
"     .@ .    @&@ @%@    ... ",
"     .  .@   .&   %&   @.@. ",
"    @.  @.@  .@   @&   .. @ ",
"  @@.    .. ..     &@ @.@   ",
"  ..@     @%  @    %.@..    ",
"           @       @%..@    ",
"                    @@@@    ",
"                     @      ",
"                            "};
