/* XPM */
static const char * pinknoise_xpm[] = {
"28 28 15 1",
" 	c None",
".	c #000000",
"+	c #050DFC",
"@	c #0466F9",
"#	c #E900FF",
"$	c #CF05FC",
"%	c #FF0000",
"&	c #F90F07",
"*	c #FF1000",
"=	c #FC7005",
"-	c #FFBE00",
";	c #FCA505",
">	c #F7BB07",
",	c #FFFA00",
"'	c #FCEB05",
".+..+.....+.................",
"..+..+.@.@.+..+..@.@.+...+..",
".+..+..+..+..@.++@.@..+@..+.",
"..@+.@.@+..@..+..@...+.@@+..",
".+..+.@+..+.@@..+@.@.+.@@...",
"@@..@@....@+.@+..@..@.+@@@+.",
".+@.+..@+.+..@@.@@+@.+.@...+",
"...@.+...+..@.@..+@...+...+.",
".@..@.@@+..+..+.@..+...@.+..",
"..+..+.@.@..+..+.@..+@+...+.",
"...++......+..+....+...+.+..",
"..+..#..$..@...@.$..#$+.$.#.",
".#$.#.#..$..$##...$...$..$..",
"...$%$..$#$..$.#.$$.#$.%$%#.",
".#$...$%#..$$%#$.%.$..$.$...",
"..$.&$....$.#...$.$..$.$.$..",
".&.$.&&..&.*..&$&.&.*.*.&.&.",
"..&.&..&..&.*..&.&.&..&*.&.&",
".*.*&.=.*&=.*=&=&.&=.*.=&.&.",
"..=.=&.-=.*=*.=*;...=.;.==..",
".=;.-;=..==..;;=.;.=;;.=;.=.",
"...;=.;.=;..;..>;.>..>-..;..",
".>->.-...>->..-.-..>;->.>.>.",
"..>.>.>>.,>->>.>>.>>.>.>.>.>",
".>.',>.'>>''.>>'.>'>>'>.>'>.",
"..>.'..>',.''>..'.>',>'>.>'.",
".,.',.,'..''.,.',.'.,'.,.',.",
"............................"};
