/* XPM */
static const char * remove_noise_dark_xpm[] = {
"28 28 36 1",
" 	c None",
".	c #F90404",
"+	c #F71F1F",
"@	c #F81616",
"#	c #E82C2C",
"$	c #F37272",
"%	c #F74343",
"&	c #EF0404",
"*	c #F80404",
"=	c #F90707",
"-	c #F83838",
";	c #F82323",
">	c #F90505",
",	c #F90808",
"'	c #F5AAAA",
")	c #F47F7F",
"!	c #F62323",
"~	c #EFA9A9",
"{	c #F5D7D7",
"]	c #F6E2E2",
"^	c #F6D5D5",
"/	c #F6C2C2",
"(	c #F6CCCC",
"_	c #F6CECE",
":	c #F6BFBF",
"<	c #F6ADAD",
"[	c #F79A9A",
"}	c #F79393",
"|	c #F91414",
"1	c #F6D8D8",
"2	c #F7D3D3",
"3	c #F81010",
"4	c #F7C7C7",
"5	c #F91111",
"6	c #F90A0A",
"7	c #FFFFFF",
"                            ",
"                            ",
"                            ",
"                .           ",
"                ..          ",
"                +@.         ",
"                #$%&        ",
"        **..=-;>,')!.       ",
"        .~{]^/(_:<[}..      ",
"        ......=|.12*.       ",
"                345.        ",
"                .6.         ",
"                ..          ",
"                .           ",
"                            ",
"    7   7                   ",
"   777 777  7               ",
"   7 7 7 7 77     7   7     ",
" 7 7 7 7 7 7   7 777 777 77 ",
" 7 7 7 7 7 7   7 7 7 7 7 7  ",
" 777 7 7 777   777 777 777  ",
"  7  7 7  7     7   7   7   ",
"     777                    ",
"      7                     ",
"                            ",
"                            ",
"                            ",
"                            "};
