/* XPM */
static char *select_all_dark_xpm[] = {
"28 28 5 1",
" 	c None",
"1	c #FFFFFF",
"2	c #0915F9",
"3	c #A3A1A1",
"4	c #00A5FF",
"                            ",
"                            ",
" 42222222222222222222222224 ",
" 42222222222222222222222224 ",
" 42222222222222222222222224 ",
" 42222222222222222222222224 ",
" 42222222222222222222222224 ",
" 42222222222222322222222224 ",
" 42222222322223132222222324 ",
" 42222223332231113222223334 ",
" 43222223132311311222233134 ",
" 41322221112313331332231114 ",
" 41322231312113231132231314 ",
" 41322231312133233132311324 ",
" 41122211312132233133313224 ",
" 43122313313132223113113224 ",
" 42132313311132223311132224 ",
" 42113113231332222333322224 ",
" 42311132223222222223222224 ",
" 42331322222222222222222224 ",
" 42233322222222222222222224 ",
" 42222222222222222222222224 ",
" 42222222222222222222222224 ",
" 42222222222222222222222224 ",
" 42222222222222222222222224 ",
"                            ",
"                            ",
"                            "
};
