/* XPM */
static const char * select_all_dark_xpm[] = {
"28 28 4 1",
" 	c None",
".	c #FFFFFF",
"+	c #5B5B5E",
"@	c #A3A1A1",
"                            ",
"                            ",
" .++++++++++++++++++++++++. ",
" .++++++++++++++++++++++++. ",
" .++++++++++++++++++++++++. ",
" .++++++++++++++++++++++++. ",
" .++++++++++++++++++++++++. ",
" .+++++++++++++@++++++++++. ",
" .+++++++@++++@.@+++++++@+. ",
" .++++++@@@++@...@+++++@@@. ",
" .@+++++@.@+@..@..++++@@.@. ",
" ..@++++...+@.@@@.@@++@.... ",
" ..@+++@.@.+..@+@..@++@.@.. ",
" ..@+++@.@.+.@@+@@.@+@..@+. ",
" ...+++..@.+.@++@@.@@@.@++. ",
" .@.++@.@@.@.@+++@..@..@++. ",
" .+.@+@.@@...@+++@@...@+++. ",
" .+..@..@+@.@@++++@@@@++++. ",
" .+@...@+++@++++++++@+++++. ",
" .+@@.@+++++++++++++++++++. ",
" .++@@@+++++++++++++++++++. ",
" .++++++++++++++++++++++++. ",
" .++++++++++++++++++++++++. ",
" .++++++++++++++++++++++++. ",
" .++++++++++++++++++++++++. ",
"                            ",
"                            ",
"                            "};
