/* XPM */
static char * silence_xpm[] = {
"28 28 4 1",
" 	c None",
".	c #262628",
"X	c black",
"o	c #F90404",
"                            ",
"                            ",
"                            ",
"                            ",
"                            ",
"                            ",
"                            ",
"                            ",
"        ..     ..           ",
"        ..     ..           ",
"        ..     ..           ",
"     X  ..     ..X   X      ",
"  X XXX ..ooooo..XX XXX XX  ",
"  X X X ..ooooo.. X X X X   ",
"  XXX XX..     .. XXX XXX   ",
"   X   X..     ..  X   X    ",
"        ..     ..           ",
"        ..     ..           ",
"                            ",
"                            ",
"                            ",
"                            ",
"                            ",
"                            ",
"                            ",
"                            ",
"                            ",
"                            "};
