/* XPM */
static char * spectral_xpm[] = {
"28 28 15 1",
" 	c None",
".	c #A09D9D",
"+	c #000000",
"@	c #9B9898",
"#	c #0A0505",
"$	c #070709",
"%	c #000002",
"&	c #020000",
"*	c #091DF7",
"=	c #262628",
"-	c #1909F7",
";	c #F72D09",
">	c #F72509",
",	c #F7BB09",
"'	c #F7F709",
"                            ",
"                            ",
"                            ",
"               .         ++ ",
"              @#.       +++ ",
"         .   .$%&.    +++++ ",
"        .%.  %% &%   ++++++ ",
"  &     %%& .&. .%  +++++++ ",
"  %     % & %&     ++*+++++ ",
"  =.   .% % %.    +++*+*+*+ ",
"  &&   && & &    ++++-+-+-+ ",
"  .%   &  %.%   +++++-+-+-+ ",
"   %. .%  &&&  ++++-+-+-+;+ ",
"   %% %%  .&. +++++-+-+-+;+ ",
"   .%+%.   . ++++-+-+-+;+;+ ",
"     %      +++-+-+-+;+;+;+ ",
"           ++++-+;+-+;+;+;+ ",
"          +++++-+;+-+;+;+>+ ",
"         ++++-+*+;+;+;+;+>+ ",
"        +++-+-+*+;+;+;+>+,+ ",
"       ++>+>+;+>+>+>+>+,+,+ ",
"      +++,+,+>+,+,+,+,+,+,+ ",
"     ++,+,+,+,+,+'+,+,+,+'+ ",
"    +++'+,+'+,+'+'+,+,+'+'+ ",
"   ++,+'+'+'+'+'+'+,+'+'+'+ ",
"                            ",
"                            ",
"                            "};
