/* XPM */
static char *spectral_dark_xpm[] = {
"28 28 15 1",
" 	c None",
"1	c #5F6262",
"2	c #646767",
"3	c #F5FAFA",
"4	c #F8F8F6",
"5	c #FFFFFD",
"6	c #FDFFFF",
"7	c #00BDFF",
"8	c #D9D9D7",
"9	c #00D5FF",
"A	c #F72D09",
"B	c #FFFFFF",
"C	c #F72509",
"D	c #F7BB09",
"E	c #F7F709",
"                            ",
"                            ",
"                            ",
"               1            ",
"              231           ",
"         1   14561          ",
"        151  55 65          ",
"  6     556 161 15          ",
"  5     5 6 56       7      ",
"  81   15 5 51       7 7 7  ",
"  66   66 6 6        9 9 9  ",
"  15   6  515        9 9 9  ",
"   51 15  666      9 9 9 A  ",
"   55 55  161      9 9 9 A  ",
"   15B51   1     9 9 9 A A  ",
"     5         7 9 9 A A A  ",
"               7 A 9 A A A  ",
"               7 A 9 A A C  ",
"             9 9 A A A A C  ",
"           9 9 9 A A A C D  ",
"         C C A C C C C D D  ",
"         D D C D D D D D D  ",
"       D D D D D E D D D E  ",
"       E D E D E E D D E E  ",
"     D E E E E E E D E E E  ",
"                            ",
"                            ",
"                            "
};
