/* XPM */
static char * start_xpm[] = {
"28 28 105 2",
"  	c None",
". 	c #000000",
"+ 	c #302C2C",
"@ 	c #181717",
"# 	c #111111",
"$ 	c #322E2E",
"% 	c #393535",
"& 	c #1D1D1D",
"* 	c #121212",
"= 	c #373333",
"- 	c #5F5A5A",
"; 	c #474343",
"> 	c #2A2626",
", 	c #0F0E0E",
"' 	c #363232",
") 	c #777070",
"! 	c #635E5E",
"~ 	c #272424",
"{ 	c #040303",
"] 	c #333030",
"^ 	c #7D7575",
"/ 	c #7F7777",
"( 	c #605A5A",
"_ 	c #484242",
": 	c #151515",
"< 	c #030303",
"[ 	c #312D2D",
"} 	c #746D6D",
"| 	c #6C6565",
"1 	c #575151",
"2 	c #433F3F",
"3 	c #0B0A0A",
"4 	c #2D2929",
"5 	c #655F5F",
"6 	c #6F6868",
"7 	c #6B6565",
"8 	c #5C5757",
"9 	c #4A4444",
"0 	c #242323",
"a 	c #101010",
"b 	c #010101",
"c 	c #272323",
"d 	c #524C4C",
"e 	c #605B5B",
"f 	c #686363",
"g 	c #656060",
"h 	c #595454",
"i 	c #423D3D",
"j 	c #0F0F0F",
"k 	c #020202",
"l 	c #1D1919",
"m 	c #413C3C",
"n 	c #544F4F",
"o 	c #645F5F",
"p 	c #4A4545",
"q 	c #1A1717",
"r 	c #342F2F",
"s 	c #393434",
"t 	c #433E3E",
"u 	c #403C3C",
"v 	c #3F3A3A",
"w 	c #3D3838",
"x 	c #312C2C",
"y 	c #251F1F",
"z 	c #171313",
"A 	c #120F0F",
"B 	c #1F1B1B",
"C 	c #1E1A1A",
"D 	c #211D1D",
"E 	c #252020",
"F 	c #231F1F",
"G 	c #2E2A2A",
"H 	c #0F0C0C",
"I 	c #181414",
"J 	c #141010",
"K 	c #110D0D",
"L 	c #130F0F",
"M 	c #151212",
"N 	c #1D1B1B",
"O 	c #110E0E",
"P 	c #151111",
"Q 	c #0F0B0B",
"R 	c #090707",
"S 	c #0A0808",
"T 	c #0B0909",
"U 	c #131010",
"V 	c #0B0808",
"W 	c #060404",
"X 	c #050303",
"Y 	c #060303",
"Z 	c #121010",
"` 	c #100E0E",
" .	c #080505",
"..	c #030101",
"+.	c #030202",
"@.	c #040202",
"#.	c #110F0F",
"$.	c #0D0C0C",
"%.	c #020101",
"&.	c #010000",
"*.	c #0A0909",
"=.	c #080707",
"-.	c #060606",
";.	c #0C0A0A",
">.	c #070707",
"                                                        ",
"                                                        ",
"                                                        ",
"                                                        ",
"                    . .                                 ",
"                    + @ #                               ",
"                    $ % & *                             ",
"                    = - ; > ,                           ",
"                    ' ) ! ; ~ {                         ",
"                    ] ^ / ( _ : <                       ",
"                    [ } / | 1 2 * 3                     ",
"                    4 5 6 7 8 9 0 a b                   ",
"                    c d e f g h i 5 j k                 ",
"                    l m n ! o ! 5 p 5 # .               ",
"                    q r s t _ u v w x y z               ",
"                    A B C D E D F G [ E                 ",
"                    H I J K L L M q N                   ",
"                    O P Q R R R S T                     ",
"                    U J V W X Y W                       ",
"                    Z `  ...+.@.                        ",
"                    #.$.X %.&.                          ",
"                    , *.{ k                             ",
"                    $.=.-.                              ",
"                    ;.>.                                ",
"                                                        ",
"                                                        ",
"                                                        ",
"                                                        "};
