/* XPM */
static char * stop_xpm[] = {
"28 28 72 1",
" 	c None",
".	c #000000",
"+	c #020202",
"@	c #1F1F1F",
"#	c #A1A1A1",
"$	c #A0A0A0",
"%	c #939393",
"&	c #696869",
"*	c #0A0A08",
"=	c #313131",
"-	c #A3A3A3",
";	c #0D0D0D",
">	c #0F0F0F",
",	c #BEBDBD",
"'	c #272727",
")	c #9E9E9E",
"!	c #070707",
"~	c #050505",
"{	c #010101",
"]	c #2D2C2C",
"^	c #0B0B0B",
"/	c #080808",
"(	c #030303",
"_	c #BBBABA",
":	c #060606",
"<	c #C3C1C1",
"[	c #302E2E",
"}	c #B8B7B7",
"|	c #312F2F",
"1	c #B8B6B6",
"2	c #2F2E2E",
"3	c #302F2F",
"4	c #C5C3C3",
"5	c #C4C2C2",
"6	c #1A1A1A",
"7	c #BEBCBC",
"8	c #090909",
"9	c #B3B2B2",
"0	c #AFADAD",
"a	c #313030",
"b	c #B4B3B3",
"c	c #2E2E2E",
"d	c #A8A7A7",
"e	c #252424",
"f	c #161616",
"g	c #0E0E0E",
"h	c #0C0C0C",
"i	c #141414",
"j	c #101010",
"k	c #B4B2B2",
"l	c #3A3939",
"m	c #292929",
"n	c #8F8F8F",
"o	c #BAB8B8",
"p	c #C8C7C7",
"q	c #CBC9C9",
"r	c #CAC9C9",
"s	c #C6C5C5",
"t	c #C4C3C3",
"u	c #C5C4C4",
"v	c #C2C1C1",
"w	c #C6C4C4",
"x	c #9F9C9C",
"y	c #100F0F",
"z	c #222121",
"A	c #262525",
"B	c #272626",
"C	c #292828",
"D	c #2B2A2A",
"E	c #262424",
"F	c #282727",
"G	c #292727",
"                            ",
"                            ",
"                            ",
"     .................+     ",
"     @##############$%&*    ",
"     =-;;;;;;;;;;;;;>+,'    ",
"     =)..!~~~~{.....{+,]    ",
"     =)..^////{...({{+_]    ",
"     =)...........:{.+<[    ",
"     =)..!........:{.+}|    ",
"     =)...........:{.+12    ",
"     =)...........:{{+,3    ",
"     =)...........:{.+43    ",
"     =)...........:;.+53    ",
"     =)......{{{{+!6.+7[    ",
"     =)...8.:^^^^^>@.+92    ",
"     =)..............+0a    ",
"     =).............{+ba    ",
"     cdefg;;;hhh;gigj+kl    ",
"     mnopqqrstuv4wvwrkx+    ",
"     +yzABBBACDCeEFBFBG     ",
"                            ",
"                            ",
"                            ",
"                            ",
"                            ",
"                            ",
"                            "};
