/* XPM */
static const char * view_all_dark_xpm[] = {
"28 28 11 1",
" 	c None",
".	c #757AB1",
"+	c #52524D",
"@	c #F5FAFA",
"#	c #F8F8F6",
"$	c #FFFFFD",
"%	c #FDFFFF",
"&	c #FFFFFF",
"*	c #F9F9F7",
"=	c #D9D9D7",
"-	c #FFFFFA",
"                            ",
"                            ",
"                            ",
"                            ",
"                            ",
"                            ",
" .                        . ",
" .             +          . ",
" .            +@+         . ",
" .       +   +#$%+      + . ",
" .      +$+  $$+%$     +&+. ",
" *%+    $$% +%+ +$+    &&&. ",
" .$+    $+% $%   $%   +&+&& ",
" .=+   +$ $ $+   +%   && +& ",
" .%%   %% % %     %+ +&+  . ",
" .+$   %+ $+$     $&+&&   . ",
" . $+ +$+ -%%     +$&&+   . ",
" . $$+$$+ +-+      ++++   . ",
" . +$&$+   +        +     . ",
" . ++$+                   . ",
" .   +                    . ",
" .                        . ",
"                            ",
"                            ",
"                            ",
"                            ",
"                            ",
"                            "};
