/* XPM */
static char *zoom_sel_xpm[] = {
"28 28 23 1",
" 	c None",
"B	c #000000",
"C	c #C9CAD8",
"D	c #CCC7C7",
"E	c #BABCDD",
"F	c #0915F9",
"G	c #9194D8",
"H	c #141414",
"I	c #BFBEBE",
"J	c #ABA9A9",
"K	c #2A2A2A",
"L	c #AFAFAF",
"M	c #CBCACA",
"N	c #727171",
"O	c #666666",
"P	c #A9A8A8",
"Q	c #404040",
"R	c #393838",
"S	c #C3C1C1",
"T	c #918F8F",
"U	c #9F9D9D",
"V	c #E4E2E2",
"W	c #1117D6",
"                            ",
"                            ",
"                            ",
"               BBBBB        ",
"             BBBCCDBBB      ",
"            BBCEEEEECBB     ",
"           BBCEFGGGGFCBB    ",
"           BCEEFGGGGFECB    ",
"          BHCCEFGGGBFEEBB   ",
"          BCIBJFGGBKFLEEB   ",
"          BEMNBFGBGGFOCEB   ",
"          BCEPQFGRGGFBSEB   ",
"          BCECTFGBGGFBECB   ",
"          BBEEUFBGGGFBEBB   ",
"           BCECFGGGGFEEB    ",
"           BBCEFGGGGFCBB    ",
"          BBBBCEEEEECBB     ",
"         BBB BBBCECBBB      ",
"        BBB    BBBBB        ",
"       BBB                  ",
"      BBB        W          ",
"     BBB         W          ",
"    BBB        WWWWW        ",
"    BB           W          ",
"                 W          ",
"                            ",
"                            ",
"                            "
};
