/* XPM */
static char * zoom_sel_xpm[] = {
"28 28 23 1",
" 	c None",
".	c #000000",
"+	c #C9CAD8",
"@	c #CCC7C7",
"#	c #BABCDD",
"$	c #0915F9",
"%	c #9194D8",
"&	c #141414",
"*	c #BFBEBE",
"=	c #ABA9A9",
"-	c #2A2A2A",
";	c #AFAFAF",
">	c #CBCACA",
",	c #727171",
"'	c #666666",
")	c #A9A8A8",
"!	c #404040",
"~	c #393838",
"{	c #C3C1C1",
"]	c #918F8F",
"^	c #9F9D9D",
"/	c #E4E2E2",
"(	c #1117D6",
"                            ",
"                 .....      ",
"               ...++@...    ",
"              ..+#####+..   ",
"             ..+#$%%%%$+..  ",
"             .+##$%%%%$#+.  ",
"            .&++#$%%%.$##.. ",
"            .+*.=$%%.-$;##. ",
"            .#>,.$%.%%$'+#. ",
"            .+#)!$%~%%$.{#. ",
"            .+#+]$%.%%$.#+. ",
"            ..##^$.%%%$.#.. ",
"             .+#+$%%%%$##.  ",
"             ..+#$%%%%$+..  ",
"            . ..+#####+..   ",
"           ... ...+#+...    ",
"          ...    .....      ",
"         /..                ",
"        ../        (        ",
"       /..         (        ",
"      ../        (((((      ",
"      ..           (        ",
"                   (        ",
"                            ",
"                            ",
"                            ",
"                            ",
"                            "};
