/* XPM */
static const char * zoom_sel_dark_xpm[] = {
"28 28 22 1",
" 	c None",
".	c #FFFFFF",
"+	c #2E2E2E",
"@	c #353535",
"#	c #343434",
"$	c #0915F9",
"%	c #9194D8",
"&	c #EBEBEB",
"*	c #414141",
"=	c #555555",
"-	c #D5D5D5",
";	c #505050",
">	c #8D8D8D",
",	c #999999",
"'	c #565656",
")	c #BFBFBF",
"!	c #C6C6C6",
"~	c #3D3D3D",
"{	c #6F6F6F",
"]	c #616161",
"^	c #1C1C1C",
"/	c #1117D6",
"                            ",
"                 .....      ",
"               ...++@...    ",
"              ..+#####+..   ",
"             ..+#$%%%%$+..  ",
"             .+##$%%%%$#+.  ",
"            .&++#$%%%.$##.. ",
"            .+*.=$%%.-$;##. ",
"            .#@>.$%.%%$,+#. ",
"            .+#')$%!%%$.~#. ",
"            .+#+{$%.%%$.#+. ",
"            ..##]$.%%%$.#.. ",
"             .+#+$%%%%$##.  ",
"             ..+#$%%%%$+..  ",
"            . ..+#####+..   ",
"           ... ...+#+...    ",
"          ...    .....      ",
"         ^..                ",
"        ..^        /        ",
"       ^..         /        ",
"      ..^        /////      ",
"      ..           /        ",
"                   /        ",
"                            ",
"                            ",
"                            ",
"                            ",
"                            "};
