/* XPM */
static const char * zoom_in_dark_xpm[] = {
"28 28 40 1",
" 	c None",
".	c #FFFFFF",
"+	c #333838",
"@	c #404242",
"#	c #EBEBEB",
"$	c #333434",
"%	c #323333",
"&	c #5A5C5C",
"*	c #404141",
"=	c #545656",
"-	c #515353",
";	c #D5D5D5",
">	c #505050",
",	c #343535",
"'	c #8D8E8E",
")	c #6D6F6F",
"!	c #4B4D4D",
"~	c #565757",
"{	c #505151",
"]	c #999999",
"^	c #2D2F2F",
"/	c #BFBFBF",
"(	c #565858",
"_	c #C6C7C7",
":	c #414343",
"<	c #3A3B3B",
"[	c #3C3E3E",
"}	c #6E7070",
"|	c #6C6D6D",
"1	c #494A4A",
"2	c #737474",
"3	c #606262",
"4	c #9FA0A0",
"5	c #727474",
"6	c #424444",
"7	c #343636",
"8	c #464747",
"9	c #363838",
"0	c #303232",
"a	c #1117D6",
"                            ",
"                 .....      ",
"               ...+ +...    ",
"              ..+     +..   ",
"             ..+       +..  ",
"             .+      @  +.  ",
"            .#$%     .&  .. ",
"            .+*.=  -.;.> +. ",
"            . ,'.)!.~{.]^ . ",
"            .  ~/.(_:<..[ . ",
"            .+  }.|.1,2. +. ",
"            ..  34.5678. .. ",
"             .+  9^00    .  ",
"             ..+       +..  ",
"            . ..+     +..   ",
"           ... ...+ +...    ",
"          ...    .....      ",
"          ..                ",
"        ..         a        ",
"        ..         a        ",
"      ..         aaaaa      ",
"      ..           a        ",
"                   a        ",
"                            ",
"                            ",
"                            ",
"                            ",
"                            "};
