/* XPM */
static char *zoom_out_dark_xpm[] = {
"28 28 40 1",
" 	c None",
"B	c #FFFFFF",
"C	c #333838",
"D	c #404242",
"E	c #EBEBEB",
"F	c #333434",
"G	c #323333",
"H	c #5A5C5C",
"I	c #404141",
"J	c #545656",
"K	c #515353",
"L	c #D5D5D5",
"M	c #505050",
"N	c #343535",
"O	c #8D8E8E",
"P	c #6D6F6F",
"Q	c #4B4D4D",
"R	c #565757",
"S	c #505151",
"T	c #999999",
"U	c #2D2F2F",
"V	c #BFBFBF",
"W	c #565858",
"X	c #C6C7C7",
"Y	c #414343",
"Z	c #3A3B3B",
"a	c #3C3E3E",
"b	c #6E7070",
"c	c #6C6D6D",
"d	c #494A4A",
"e	c #737474",
"f	c #606262",
"g	c #9FA0A0",
"h	c #727474",
"i	c #424444",
"j	c #343636",
"k	c #464747",
"l	c #363838",
"m	c #303232",
"n	c #00A5FF",
"                            ",
"                            ",
"                            ",
"               BBBBB        ",
"             BBBC CBBB      ",
"            BBC     CBB     ",
"           BBC       CBB    ",
"           BC      D  CB    ",
"          BEFG     BH  BB   ",
"          BCIBJ  KBLBM CB   ",
"          B NOBPQBRSBTU B   ",
"          B  RVBWXYZBBa B   ",
"          BC  bBcBdNeB CB   ",
"          BB  fgBhijkB BB   ",
"           BC  lUmm    B    ",
"           BBC       CBB    ",
"          BBBBC     CBB     ",
"         BBB BBBC CBBB      ",
"        BBB    BBBBB        ",
"       BBB                  ",
"      BBB                   ",
"     BBB                    ",
"    BBB                     ",
"    BB         nnnnn        ",
"                            ",
"                            ",
"                            ",
"                            "
};
