/* XPM */
static char *zoom_sel_dark_xpm[] = {
"28 28 22 1",
" 	c None",
"B	c #FFFFFF",
"C	c #2E2E2E",
"D	c #353535",
"E	c #343434",
"F	c #0915F9",
"G	c #9194D8",
"H	c #EBEBEB",
"I	c #414141",
"J	c #555555",
"K	c #D5D5D5",
"L	c #505050",
"M	c #8D8D8D",
"N	c #999999",
"O	c #565656",
"P	c #BFBFBF",
"Q	c #C6C6C6",
"R	c #3D3D3D",
"S	c #6F6F6F",
"T	c #616161",
"U	c #1C1C1C",
"V	c #00A5FF",
"                            ",
"                            ",
"                            ",
"               BBBBB        ",
"             BBBCCDBBB      ",
"            BBCEEEEECBB     ",
"           BBCEVFFFFVCBB    ",
"           BCEEVFFFFVECB    ",
"          BHCCEVFFFBVEEBB   ",
"          BCIBJVFFBKVLEEB   ",
"          BEDMBVFBFFVNCEB   ",
"          BCEOPVFQFFVBREB   ",
"          BCECSVFBFFVBECB   ",
"          BBEETVBFFFVBEBB   ",
"           BCECVFFFFVEEB    ",
"           BBCEVFFFFVCBB    ",
"          BBBBCEEEEECBB     ",
"         BBB BBBCECBBB      ",
"        BBB    BBBBB        ",
"       BBB                  ",
"      BBB        V          ",
"     BBB         V          ",
"    BBB        VVVVV        ",
"    BB           V          ",
"                 V          ",
"                            ",
"                            ",
"                            "
};
