/* XPM */
static char * zoom_in_xpm[] = {
"28 28 59 1",
" 	c None",
".	c #000000",
"+	c #CCC7C7",
"@	c #E5E3E3",
"#	c #E4E2E2",
"$	c #D9D7D7",
"%	c #BFBDBD",
"&	c #DAD8D8",
"*	c #141414",
"=	c #CCCBCB",
"-	c #CDCCCC",
";	c #DEDCDC",
">	c #E2E0E0",
",	c #DFDDDD",
"'	c #D5D3D3",
")	c #A5A3A3",
"!	c #E1DFDF",
"~	c #DDDBDB",
"{	c #BFBEBE",
"]	c #ABA9A9",
"^	c #D4D2D2",
"/	c #AEACAC",
"(	c #2A2A2A",
"_	c #AFAFAF",
":	c #CBCACA",
"<	c #727171",
"[	c #929090",
"}	c #B4B2B2",
"|	c #A9A8A8",
"1	c #AFAEAE",
"2	c #666666",
"3	c #D2D0D0",
"4	c #DCDADA",
"5	c #D6D4D4",
"6	c #404040",
"7	c #A9A7A7",
"8	c #393838",
"9	c #BEBCBC",
"0	c #C5C4C4",
"a	c #C3C1C1",
"b	c #E3E1E1",
"c	c #D3D1D1",
"d	c #918F8F",
"e	c #939292",
"f	c #B6B5B5",
"g	c #8C8B8B",
"h	c #9F9D9D",
"i	c #605F5F",
"j	c #8D8B8B",
"k	c #BDBBBB",
"l	c #CBC9C9",
"m	c #B9B8B8",
"n	c #E3E2E2",
"o	c #D5D4D4",
"p	c #C9C7C7",
"q	c #CFCDCD",
"r	c #E4E3E3",
"s	c #E0DEDE",
"t	c #1117D6",
"                            ",
"                 .....      ",
"               ...+@+...    ",
"              ..+@@@@@+..   ",
"             ..+@@@##@@+..  ",
"             .+@@@@@$%&@+.  ",
"            .*=-;>>,'.)!~.. ",
"            .+{.]^$/.(._>+. ",
"            .@:<.[}.|1.234. ",
"            .@5|6.7890..ab. ",
"            .+#cd.e.f:g.5+. ",
"            ..!^hi.jklm.c.. ",
"             .+nop3qq,'!o.  ",
"             ..+r##@s@#+..  ",
"            . ..+@@@@@+..   ",
"           ... ...+@+...    ",
"          ...    .....      ",
"         #..                ",
"        ..#        t        ",
"       #..         t        ",
"      ..#        ttttt      ",
"      ..           t        ",
"                   t        ",
"                            ",
"                            ",
"                            ",
"                            ",
"                            "};
