/* XPM */
static char *zoom_in_xpm[] = {
"28 28 59 1",
" 	c None",
"B	c #000000",
"C	c #CCC7C7",
"D	c #E5E3E3",
"E	c #E4E2E2",
"F	c #D9D7D7",
"G	c #BFBDBD",
"H	c #DAD8D8",
"I	c #141414",
"J	c #CCCBCB",
"K	c #CDCCCC",
"L	c #DEDCDC",
"M	c #E2E0E0",
"N	c #DFDDDD",
"O	c #D5D3D3",
"P	c #A5A3A3",
"Q	c #E1DFDF",
"R	c #DDDBDB",
"S	c #BFBEBE",
"T	c #ABA9A9",
"U	c #D4D2D2",
"V	c #AEACAC",
"W	c #2A2A2A",
"X	c #AFAFAF",
"Y	c #CBCACA",
"Z	c #727171",
"a	c #929090",
"b	c #B4B2B2",
"c	c #A9A8A8",
"d	c #AFAEAE",
"e	c #666666",
"f	c #D2D0D0",
"g	c #DCDADA",
"h	c #D6D4D4",
"i	c #404040",
"j	c #A9A7A7",
"k	c #393838",
"l	c #BEBCBC",
"m	c #C5C4C4",
"n	c #C3C1C1",
"o	c #E3E1E1",
"p	c #D3D1D1",
"q	c #918F8F",
"r	c #939292",
"s	c #B6B5B5",
"t	c #8C8B8B",
"u	c #9F9D9D",
"v	c #605F5F",
"w	c #8D8B8B",
"x	c #BDBBBB",
"y	c #CBC9C9",
"z	c #B9B8B8",
"0	c #E3E2E2",
"1	c #D5D4D4",
"2	c #C9C7C7",
"3	c #CFCDCD",
"4	c #E4E3E3",
"5	c #E0DEDE",
"6	c #1117D6",
"                            ",
"                            ",
"                            ",
"               BBBBB        ",
"             BBBCDCBBB      ",
"            BBCDDDDDCBB     ",
"           BBCDDDEEDDCBB    ",
"           BCDDDDDFGHDCB    ",
"          BIJKLMMNOBPQRBB   ",
"          BCSBTUFVBWBXMCB   ",
"          BDYZBabBcdBefgB   ",
"          BDhciBjklmBBnoB   ",
"          BCEpqBrBsYtBhCB   ",
"          BBQUuvBwxyzBpBB   ",
"           BC012f33NOQ1B    ",
"           BBC4EED5DECBB    ",
"          BBBBCDDDDDCBB     ",
"         BBB BBBCDCBBB      ",
"        BBB    BBBBB        ",
"       BBB                  ",
"      BBB        6          ",
"     BBB         6          ",
"    BBB        66666        ",
"    BB           6          ",
"                 6          ",
"                            ",
"                            ",
"                            "
};
