<svg viewBox="0 0 32 32" xmlns="http://www.w3.org/2000/svg"><path d="m15.979185.6928819c8.468646 0 15.333295 6.8646501 15.333295 15.3332951 0 8.468646-6.864649 15.333295-15.333295 15.333295-8.4686458 0-15.3332953-6.864649-15.3332953-15.333295 0-8.468645 6.8646495-15.3332951 15.3332953-15.3332951z" fill="#fff"/><path d="m1.4273816 16.495367h29.0143434" fill="#00f" stroke="#00f"/><g fill="none"><path d="m1.9792196 17.359507c6.66665-9.999975 8.6666454 15.333295 12.6666354-1.33333 3.150287-13.1261952 8.520777 1.921929 9.999975-.666665 2.66666-4.666655 3.99999 1.33333 4.666655 1.999995" stroke="#000" stroke-width=".8"/><path d="m16.498751 1.9452015v28.0478235" stroke="#f00"/><path d="m15.979185.6928819c8.468646 0 15.333295 6.8646501 15.333295 15.3332951 0 8.468646-6.864649 15.333295-15.333295 15.333295-8.4686458 0-15.3332953-6.864649-15.3332953-15.333295 0-8.468645 6.8646495-15.3332951 15.3332953-15.3332951z" stroke="#000" stroke-width=".666665"/></g></svg>